<?xml version="1.0" standalone="no"?>
<!DOCTYPE svg PUBLIC "-//W3C//DTD SVG 20010904//EN"
 "http://www.w3.org/TR/2001/REC-SVG-20010904/DTD/svg10.dtd">
<svg version="1.0" xmlns="http://www.w3.org/2000/svg"
 width="512.000000pt" height="512.000000pt" viewBox="0 0 512.000000 512.000000"
 preserveAspectRatio="xMidYMid meet">
<metadata>
Created by potrace 1.16, written by Peter Selinger 2001-2019
</metadata>
<g transform="translate(0.000000,512.000000) scale(0.100000,-0.100000)"
fill="#000000" stroke="none">
<path d="M28 5102 c-16 -9 -28 -20 -28 -25 0 -7 37 15 69 40 15 11 -19 -1 -41
-15z"/>
<path d="M63 5082 l-63 -36 0 -61 0 -61 78 -32 c42 -18 80 -32 85 -32 9 0 117
71 117 77 0 4 -37 -17 -97 -55 -23 -14 -38 -9 -115 38 l-30 18 56 36 c31 20
81 49 111 65 l55 29 71 -39 c43 -23 69 -33 65 -24 -3 8 -1 15 3 15 12 0 21
-26 21 -56 0 -19 -5 -24 -24 -24 -14 0 -27 4 -31 9 -3 6 -38 -9 -78 -33 l-72
-43 4 -170 c2 -98 -1 -173 -6 -176 -5 -3 -44 12 -86 34 -88 46 -82 53 -77 -83
2 -83 1 -87 -24 -103 -21 -14 -26 -25 -26 -60 0 -30 5 -45 16 -49 8 -3 12 -10
9 -16 -4 -6 -11 -8 -16 -5 -5 4 -9 -30 -9 -82 0 -88 0 -88 31 -105 l30 -18 -5
43 c-12 87 -11 170 1 174 6 2 13 -6 15 -19 2 -18 28 -35 117 -81 108 -55 115
-58 122 -39 16 42 29 34 29 -17 0 -28 -4 -51 -10 -51 -5 0 -10 6 -10 13 -1 12
-119 71 -128 63 -2 -3 -1 -36 3 -74 l7 -69 108 -53 c94 -46 110 -58 116 -83 3
-15 3 -31 0 -35 -4 -3 -47 14 -96 38 -64 31 -90 49 -90 62 0 10 -10 22 -22 27
-13 5 -57 25 -98 45 -118 58 -120 59 -120 36 0 -19 10 -26 134 -95 27 -15 28
-17 13 -32 -14 -14 -21 -13 -81 15 -79 37 -93 19 -15 -19 l51 -25 -51 -31
c-28 -18 -51 -37 -51 -44 0 -12 59 20 160 88 l65 43 5 -47 5 -48 84 -44 83
-43 -28 -18 c-15 -11 -32 -16 -37 -13 -6 3 -7 1 -3 -6 6 -8 17 -6 43 10 l35
22 46 -22 45 -22 -86 -52 c-86 -52 -86 -52 -89 -97 l-4 -45 -8 53 -9 53 -86
44 c-47 24 -95 50 -105 58 -19 14 -18 16 25 42 24 16 50 28 56 28 7 0 13 4 13
9 0 16 -21 8 -75 -29 -31 -20 -57 -34 -60 -32 -2 3 26 25 63 49 71 48 91 80
50 80 -13 0 -59 -22 -103 -48 -71 -42 -80 -52 -83 -80 -4 -35 -1 -37 31 -21
21 10 21 9 3 -5 -10 -8 -24 -17 -30 -19 -6 -2 -8 -7 -4 -11 3 -4 17 -3 30 4
22 10 22 10 4 -4 -10 -8 -24 -17 -30 -19 -6 -2 -9 -7 -6 -9 12 -12 293 -148
306 -148 8 0 59 30 114 67 93 61 100 68 100 99 0 58 27 61 120 14 71 -36 97
-62 71 -72 -5 -2 -5 -68 -1 -153 18 -336 18 -334 4 -328 -8 3 -14 1 -14 -3 0
-5 22 -21 50 -35 l49 -26 65 43 c36 24 68 44 72 44 3 0 17 9 31 20 14 11 30
20 34 20 16 0 9 -39 -8 -50 -16 -10 -15 -11 7 -7 14 3 36 1 50 -2 23 -7 18
-12 -61 -65 -92 -61 -98 -71 -99 -161 0 -23 -3 -27 -10 -15 -13 20 -13 80 0
80 6 0 10 27 9 63 -1 48 -2 56 -9 35 -4 -15 -15 -35 -24 -44 -10 -9 -16 -33
-16 -60 0 -24 -4 -44 -8 -44 -5 0 -41 -21 -80 -46 l-72 -46 -98 46 c-94 44
-97 47 -100 81 l-3 36 53 -30 c29 -16 72 -37 95 -46 l41 -16 54 37 c64 45 108
84 108 97 0 5 -17 -4 -37 -20 -21 -16 -57 -41 -80 -56 l-42 -27 -76 36 c-41
19 -77 39 -80 44 -7 12 134 110 159 110 19 1 19 2 4 11 -14 8 -28 3 -60 -19
-60 -41 -177 -112 -185 -112 -18 0 41 47 133 107 l103 66 -5 46 c-2 25 -7 108
-10 184 -3 75 -9 137 -13 137 -3 0 -51 -29 -106 -64 l-99 -63 -84 39 c-46 22
-86 37 -89 34 -3 -3 6 -11 21 -17 15 -7 28 -22 30 -33 3 -12 14 -153 25 -315
23 -316 23 -309 -29 -336 l-27 -14 -2 57 c-2 81 -41 548 -49 602 l-7 45 -113
57 c-61 32 -112 54 -112 50 0 -4 49 -32 109 -62 95 -46 108 -56 100 -71 -5
-10 -54 -51 -109 -91 -87 -63 -100 -76 -100 -101 l0 -29 33 22 c17 11 47 28
65 37 17 9 32 20 32 24 0 5 20 22 45 39 32 22 46 27 50 18 7 -21 45 -483 45
-553 0 -38 -5 -67 -12 -71 -8 -5 -9 -2 -5 10 5 12 3 16 -5 13 -7 -2 -12 -13
-11 -25 1 -11 -4 -23 -12 -26 -25 -9 -20 61 5 76 15 10 20 24 20 56 l0 43 -30
-16 c-29 -15 -30 -17 -30 -94 l0 -79 -92 -62 c-51 -34 -94 -66 -96 -71 -4 -11
15 -12 20 -1 7 17 168 122 168 109 0 -8 -43 -44 -95 -81 l-95 -68 0 -109 c0
-60 3 -109 6 -109 3 0 18 8 32 19 32 22 92 53 92 47 0 -2 -29 -21 -65 -42
l-65 -39 0 -88 0 -89 42 31 c47 35 58 38 58 16 0 -9 -22 -26 -51 -39 l-50 -24
26 -18 c76 -55 75 -53 75 -105 0 -39 3 -49 17 -49 9 0 49 -18 89 -40 40 -22
79 -40 87 -40 8 0 54 29 103 63 91 65 133 91 139 85 2 -2 9 -81 15 -177 l12
-175 -33 -27 c-43 -35 -44 -33 -53 141 -4 74 -8 136 -10 138 -2 2 -42 -22 -90
-53 l-86 -55 -80 40 c-50 25 -84 49 -90 63 -9 22 -9 22 -9 -3 -1 -25 34 -392
43 -458 4 -29 1 -36 -27 -52 -17 -11 -33 -18 -34 -16 -2 2 -17 128 -33 281
-17 152 -32 281 -36 286 -3 6 2 22 11 37 15 25 14 25 -9 -3 l-26 -30 0 -327
c0 -181 3 -328 7 -328 6 0 72 47 83 60 10 11 79 60 84 60 20 0 -5 -22 -84 -75
l-89 -60 -1 -50 0 -51 87 -51 c49 -28 103 -59 121 -69 17 -10 32 -21 32 -25 0
-4 -54 -45 -120 -91 -70 -49 -120 -90 -120 -100 0 -11 33 9 107 64 60 44 151
109 203 143 52 35 147 108 211 162 162 136 410 345 433 363 11 8 -56 -60 -147
-151 -97 -96 -167 -175 -167 -185 0 -21 -122 -114 -488 -369 l-152 -107 0 -44
c0 -33 3 -42 14 -38 25 9 30 -18 8 -37 -13 -10 -22 -29 -22 -44 0 -27 1 -26
53 21 28 26 144 128 257 228 113 100 255 229 315 288 61 59 151 140 201 180
179 142 370 303 573 482 259 227 315 273 531 431 96 71 204 152 240 180 59 47
162 119 200 140 33 18 -11 -19 -93 -79 -251 -181 -612 -471 -842 -676 -186
-166 -380 -332 -515 -439 -52 -41 -148 -127 -214 -190 -93 -88 -429 -388 -687
-613 -15 -12 -19 -30 -19 -73 l0 -57 31 27 c45 37 49 21 6 -23 -37 -38 -37
-38 -37 -126 l0 -88 43 37 c23 21 134 124 247 230 273 255 354 327 393 349 38
21 -111 -127 -446 -442 -130 -123 -237 -230 -237 -239 0 -14 142 115 459 421
80 76 175 158 213 182 37 24 68 49 68 54 0 7 -6 7 -20 0 -45 -24 -14 4 93 84
62 46 147 115 188 153 40 38 150 134 244 213 93 80 259 225 369 323 130 115
207 177 221 177 23 0 52 18 143 86 70 52 57 57 -14 6 -32 -23 -59 -40 -61 -38
-10 10 18 39 102 106 101 79 123 100 52 51 -106 -74 -193 -143 -288 -230 -128
-115 -529 -467 -705 -617 -115 -98 -133 -110 -148 -99 -15 12 -24 6 -73 -40
-51 -50 -83 -62 -83 -30 0 21 106 105 133 105 14 0 27 -4 29 -8 4 -10 325 263
713 608 164 145 304 253 472 363 81 54 179 130 253 198 66 60 120 104 120 97
0 -19 -8 -28 -77 -87 -35 -30 -63 -57 -63 -62 0 -4 14 -10 30 -14 17 -4 66
-33 110 -65 43 -33 214 -149 378 -259 165 -110 348 -236 406 -281 59 -45 110
-80 112 -77 2 2 -11 15 -31 28 -41 28 -45 49 -10 49 28 0 271 -157 260 -168
-3 -3 -21 2 -40 13 -29 15 -40 16 -61 6 -20 -9 -30 -8 -47 4 -46 32 -36 12 27
-55 96 -103 120 -154 121 -260 0 -76 -3 -92 -32 -150 -18 -36 -89 -141 -159
-235 -164 -221 -228 -346 -259 -510 -8 -42 -15 -97 -15 -121 l0 -44 115 0 115
0 0 34 c0 18 11 77 24 130 33 128 119 293 247 471 109 152 148 220 173 304 19
65 20 152 2 203 l-13 37 31 -16 c17 -8 32 -17 34 -18 1 -1 7 -28 12 -59 20
-125 -29 -257 -168 -451 -95 -134 -148 -223 -197 -335 -54 -125 -116 -302
-103 -298 6 2 33 62 59 133 72 191 146 332 263 498 58 82 117 178 132 215 25
59 28 80 29 174 0 60 1 108 3 108 7 0 152 -83 156 -89 8 -12 -32 -153 -69
-247 -48 -118 -79 -172 -195 -339 -118 -169 -154 -239 -180 -348 -26 -106 -26
-107 10 -107 28 0 30 2 19 22 -18 33 -3 114 35 192 18 39 41 80 49 91 15 19
16 19 23 2 4 -12 -5 -58 -23 -115 -17 -53 -29 -102 -26 -109 3 -7 34 35 70 95
87 143 204 314 211 307 3 -2 -26 -51 -65 -107 -80 -118 -197 -312 -212 -351
l-11 -27 64 0 64 0 68 128 c62 115 186 335 221 388 13 20 11 23 -22 44 -19 12
-35 26 -35 31 0 12 51 -22 93 -59 17 -17 27 -36 27 -55 0 -17 -47 -119 -115
-253 l-115 -224 49 0 c30 0 51 5 54 12 5 13 221 299 303 401 26 32 49 55 53
51 3 -3 6 -43 6 -87 l0 -82 165 -84 c91 -46 168 -91 172 -101 7 -19 68 -45 78
-33 3 5 27 33 53 65 38 45 43 55 25 50 -20 -5 -21 -3 -15 43 4 26 7 63 7 81 0
28 3 32 18 27 16 -7 16 -6 0 11 -10 9 -18 24 -18 32 0 10 37 -4 120 -46 l120
-60 0 78 0 78 -141 69 -141 70 6 44 c3 24 6 57 6 72 l0 29 130 -65 c71 -36
132 -65 135 -65 3 0 5 4 5 10 0 5 -82 51 -181 101 -194 97 -264 137 -255 146
3 3 11 1 18 -5 10 -7 335 -174 411 -210 4 -2 7 3 7 11 0 12 -232 131 -357 183
-17 8 -49 34 -70 60 -21 25 -65 61 -98 79 -71 40 -526 247 -531 242 -2 -1 121
-61 272 -132 185 -86 289 -141 317 -166 56 -50 42 -59 -21 -14 -64 45 -376
188 -547 249 -172 62 -394 171 -475 233 -123 94 -366 251 -715 461 -210 127
-294 184 -276 190 15 5 256 -122 475 -252 121 -71 183 -103 190 -96 17 17 34
11 119 -43 96 -62 117 -84 94 -93 -9 -3 -22 -2 -29 2 -8 4 -7 0 2 -9 50 -53
509 -290 612 -317 130 -34 320 -117 546 -237 118 -63 473 -233 486 -233 3 0 6
13 6 28 0 27 -9 32 -193 117 -224 102 -365 172 -460 227 -103 60 -174 88 -257
104 -185 35 -299 89 -585 279 -227 150 -369 237 -488 296 -156 79 -533 308
-585 357 -36 34 -57 97 -48 146 6 32 53 102 62 93 2 -2 -6 -26 -17 -53 l-21
-50 20 -46 c23 -54 61 -84 272 -215 200 -124 372 -213 399 -206 15 4 51 -14
123 -59 57 -36 128 -80 158 -98 30 -18 66 -40 80 -48 23 -14 22 -12 -6 19 -17
19 -47 57 -66 84 -49 68 -189 202 -263 252 -82 55 -306 177 -382 208 -34 13
-110 36 -168 50 -58 14 -115 30 -125 35 -36 19 -18 81 36 130 l27 25 -29 -40
c-16 -22 -21 -34 -11 -26 15 12 23 9 68 -29 33 -27 90 -59 155 -86 349 -144
677 -383 772 -562 18 -34 31 -66 28 -71 -8 -12 112 -74 130 -67 22 8 17 51
-17 132 -17 41 -29 77 -26 80 3 3 18 -13 33 -35 41 -63 58 -53 29 17 -15 34
-15 38 2 50 10 7 24 11 33 10 21 -4 97 -191 109 -268 l10 -65 -3 75 c-2 54
-11 93 -31 140 -15 36 -28 79 -29 96 -4 68 -140 251 -243 327 -38 27 -115 73
-173 102 -58 29 -179 93 -270 143 -345 188 -405 226 -405 255 0 12 -54 46
-170 110 -94 51 -221 122 -283 156 l-114 64 -20 -21 -21 -20 74 -37 c41 -21
139 -74 219 -120 80 -45 186 -103 235 -130 99 -53 125 -72 125 -91 0 -23 7
-27 -477 244 -234 130 -263 148 -263 162 0 4 18 17 41 28 44 22 70 18 149 -23
l31 -16 72 58 c39 32 85 66 102 77 16 10 151 109 298 219 233 173 265 201 251
212 -24 17 -9 38 17 25 16 -9 27 -5 63 25 49 40 53 41 53 19 0 -21 -375 -315
-749 -587 -87 -63 -87 -64 -62 -76 30 -13 30 -13 112 56 57 49 72 59 72 49 0
-1 -32 -30 -70 -64 l-70 -61 99 -55 c54 -31 105 -58 112 -61 49 -19 594 499
986 937 62 70 153 162 201 205 49 43 162 144 253 224 229 203 399 349 407 348
4 0 -3 -7 -15 -16 -25 -17 -30 -38 -11 -49 6 -4 8 -3 5 3 -7 11 92 78 101 69
7 -8 -19 -37 -31 -33 -5 1 -23 -10 -39 -25 -31 -29 -58 -37 -58 -17 0 6 -46
-31 -102 -83 -57 -51 -141 -127 -188 -168 -47 -40 -94 -82 -105 -93 -20 -18
-20 -18 10 -11 l30 6 -34 -29 c-20 -17 -30 -32 -24 -36 6 -4 18 2 28 13 21 23
35 26 35 6 0 -25 -76 -42 -106 -24 -15 10 -155 -113 -269 -237 -530 -577 -841
-881 -1010 -985 -32 -20 -35 -24 -20 -32 33 -19 220 122 460 348 143 135 346
351 408 435 27 37 31 39 46 24 37 -33 40 -31 406 310 22 20 4 9 -40 -26 -44
-35 -116 -97 -160 -139 -44 -41 -92 -85 -106 -98 -30 -26 -62 -21 -51 8 12 30
203 238 262 284 56 44 146 96 166 96 6 0 25 14 42 30 36 34 69 42 53 13 -5
-10 -34 -42 -65 -72 -30 -30 -53 -57 -51 -61 3 -4 -30 -38 -73 -76 -42 -38
-161 -149 -263 -246 -103 -98 -191 -178 -196 -178 -4 1 19 27 52 58 33 31 49
48 35 37 -50 -39 -109 -98 -105 -105 3 -4 -39 -45 -93 -92 -53 -47 -167 -149
-252 -228 -175 -161 -266 -237 -361 -302 l-65 -45 37 -21 37 -22 59 43 c85 63
288 234 442 372 347 310 525 465 534 465 5 0 3 -7 -4 -16 -49 -59 -889 -787
-989 -857 -13 -9 -21 -20 -17 -23 4 -4 46 -28 94 -54 l88 -47 178 171 c193
185 271 254 246 219 -22 -32 -193 -207 -302 -309 -71 -67 -94 -94 -84 -101 6
-6 73 -45 147 -88 416 -242 517 -311 607 -418 76 -91 154 -205 151 -221 -2 -6
12 -45 31 -85 25 -55 36 -94 41 -155 l7 -81 2 74 c1 65 -3 83 -35 153 -19 43
-34 84 -32 90 11 31 138 -192 173 -304 l22 -71 102 102 101 102 -167 83 c-96
48 -173 93 -181 105 -7 12 -8 21 -2 21 12 0 312 -131 394 -172 54 -27 86 -31
86 -10 0 5 -6 9 -14 9 -7 0 -81 32 -164 72 -84 39 -193 87 -244 107 -50 19
-98 40 -106 47 -12 9 -95 125 -125 175 -11 17 8 8 98 -48 91 -57 463 -263 523
-290 39 -17 52 -29 52 -45 0 -15 11 -25 39 -35 22 -8 103 -44 180 -79 123 -56
141 -68 141 -88 0 -13 -6 -26 -13 -29 -7 -2 -53 13 -103 35 -71 32 -91 46
-101 69 -14 35 -63 72 -63 47 0 -20 -16 -19 -67 5 -47 21 -53 17 -23 -15 l20
-21 -108 -93 c-91 -80 -149 -139 -115 -118 9 6 418 -175 437 -194 5 -5 7 -12
3 -15 -3 -4 -59 17 -122 46 -64 29 -119 49 -122 46 -6 -6 176 -95 247 -121 19
-7 120 -52 223 -99 104 -47 190 -86 193 -86 2 0 4 51 4 113 l-1 112 -37 -43
c-20 -23 -41 -42 -45 -42 -12 0 -268 118 -295 136 l-23 15 46 58 c25 31 58 70
74 86 l30 28 118 -57 c65 -31 122 -56 126 -56 4 0 7 18 7 41 l0 40 -116 55
c-64 30 -129 63 -144 74 -15 10 -82 44 -150 74 -68 31 -127 59 -131 63 -4 4
-2 16 6 26 12 17 16 17 76 -7 139 -53 219 -96 219 -117 0 -16 24 -31 116 -75
63 -30 117 -54 120 -54 2 0 4 6 4 13 0 8 -18 19 -40 26 -32 9 -40 17 -40 35 0
13 -8 30 -18 39 -20 19 -52 23 -52 7 0 -5 6 -10 13 -10 18 0 54 -27 46 -34 -3
-4 -25 2 -48 13 -24 10 -38 22 -32 25 24 15 8 29 -76 68 -49 22 -89 44 -91 49
-2 5 -12 9 -21 9 -24 0 -247 103 -272 125 -10 10 -17 20 -15 22 2 2 100 -39
217 -93 118 -53 262 -118 322 -145 l107 -48 0 256 0 256 -23 -21 c-13 -12 -27
-22 -33 -22 -5 0 -87 32 -183 70 -96 39 -180 70 -187 70 -8 0 -14 4 -14 9 0 9
88 121 94 121 11 0 313 -124 324 -132 9 -8 11 -23 7 -46 -4 -23 -3 -32 4 -27
6 3 11 28 11 55 l0 49 -82 33 c-45 18 -106 44 -136 58 l-54 25 39 44 c44 50
27 50 168 -3 38 -15 65 -23 60 -18 -6 5 -49 24 -97 43 -80 31 -86 35 -71 51
12 13 21 15 40 7 14 -5 28 -8 30 -5 2 2 -9 8 -26 14 -29 10 -32 8 -87 -56 -32
-37 -63 -73 -69 -80 -11 -12 -45 -7 -45 7 0 13 142 176 156 179 8 2 50 -12 94
-31 44 -19 80 -31 80 -26 0 5 -6 12 -13 15 -11 4 -12 17 -6 56 5 28 11 53 14
56 3 3 -2 14 -11 23 -15 17 -15 20 0 43 9 14 16 31 16 38 0 8 -5 6 -11 -5 -5
-9 -15 -17 -21 -17 -21 0 -233 82 -243 93 -5 7 -18 11 -29 9 -10 -2 -32 6 -48
18 -26 19 -23 13 18 -43 47 -62 49 -63 52 -36 2 18 9 29 18 29 13 0 14 -16 9
-117 -9 -141 -25 -174 -25 -50 0 48 -3 87 -8 87 -4 0 -50 -42 -101 -94 -91
-91 -95 -94 -117 -79 l-23 15 58 56 c72 71 121 138 121 166 0 15 -6 9 -19 -19
-10 -22 -40 -64 -67 -94 l-50 -54 -33 17 c-18 10 -35 15 -37 13 -3 -2 9 -10
26 -17 36 -15 36 -17 8 -48 l-23 -24 23 -15 c16 -11 22 -25 22 -52 0 -64 -8
-66 -98 -25 l-80 36 -4 72 c-2 39 1 77 7 85 5 7 13 37 16 65 l6 51 2 -46 c1
-42 4 -47 37 -63 20 -9 39 -15 41 -12 2 2 -5 7 -16 11 -24 7 -25 20 -7 98 15
61 13 66 -15 41 -21 -19 -42 -10 -35 14 7 24 29 492 24 498 -3 2 -37 -22 -76
-53 l-72 -58 0 -54 0 -55 30 29 c36 35 84 42 73 10 -4 -11 -7 -47 -6 -80 0
-46 -2 -53 -7 -30 -4 17 -8 24 -9 17 0 -7 -6 -10 -11 -7 -15 9 -20 -13 -30
-126 l-9 -104 4 103 3 104 -24 -23 c-21 -19 -24 -32 -25 -93 -1 -70 -15 -191
-18 -150 0 12 -4 37 -7 55 -4 26 -3 30 5 19 8 -11 11 -2 11 38 0 50 -1 52 -20
40 -13 -9 -21 -25 -22 -48 -1 -35 -1 -35 -7 7 l-6 41 -80 -70 -80 -70 -7 -141
c-3 -78 -4 -144 -2 -146 3 -3 76 67 164 155 88 88 160 155 160 149 0 -5 -82
-92 -182 -192 l-183 -183 -5 -106 -5 -106 -64 50 -64 49 2 99 c2 157 20 593
32 779 8 134 14 173 26 182 9 7 20 10 25 7 4 -3 11 1 14 9 2 7 54 60 115 116
l110 103 82 -33 c45 -18 100 -41 122 -52 l39 -19 -22 -18 c-22 -18 -24 -17
-123 28 l-100 46 -98 -98 c-57 -57 -104 -96 -110 -92 -6 4 -11 5 -11 2 0 -8
157 -86 172 -86 20 0 210 129 267 181 l50 46 -53 21 c-115 44 -207 85 -202 89
3 3 64 -19 136 -48 l130 -53 0 -36 c0 -19 -7 -161 -15 -314 -12 -223 -12 -282
-2 -288 19 -12 23 -10 57 29 l33 37 59 -21 c32 -12 56 -17 52 -12 -3 5 1 21
10 34 l16 24 92 -33 c51 -19 133 -50 182 -70 94 -38 143 -49 66 -15 -24 11
-105 43 -180 71 -74 27 -138 53 -142 57 -4 3 11 26 32 50 22 25 40 48 40 52 0
27 47 14 278 -78 9 -4 12 11 12 55 l0 59 -47 18 c-51 19 -70 31 -61 40 3 3 26
-4 52 -15 57 -24 56 -24 56 -6 0 7 -25 24 -55 36 -30 12 -55 26 -55 31 0 14
21 10 68 -11 40 -18 42 -18 42 -1 0 13 -16 25 -50 39 -27 12 -50 26 -50 31 0
14 2 14 50 -5 23 -9 43 -14 47 -11 13 13 -7 34 -46 47 -23 7 -41 19 -41 27 0
16 0 16 43 -2 46 -19 47 -19 47 4 0 12 -9 22 -22 26 -55 17 -324 119 -332 126
-5 5 -7 11 -4 14 5 5 48 -10 276 -94 60 -23 82 -27 82 -17 0 8 -65 37 -170 77
-188 70 -194 72 -189 87 2 6 73 -15 163 -49 206 -76 196 -73 196 -56 0 8 -8
18 -17 22 -131 50 -333 125 -340 125 -5 0 -17 -64 -27 -142 -28 -221 -30 -231
-45 -236 -9 -3 -12 0 -9 9 3 8 16 97 28 199 13 102 26 189 30 193 4 5 89 -21
189 -57 100 -36 184 -66 186 -66 3 0 5 8 5 18 0 15 -28 29 -132 67 -147 53
-228 85 -228 91 0 3 12 23 27 45 26 40 26 42 9 55 -17 12 -18 14 -3 20 27 10
20 27 -8 20 -25 -6 -65 21 -65 45 0 14 -7 16 214 -65 99 -37 181 -64 184 -61
9 8 3 10 -183 75 -99 34 -187 66 -197 71 -29 16 -39 -42 -12 -72 15 -16 14
-19 -5 -31 -12 -7 -21 -20 -21 -30 0 -9 -4 -19 -9 -23 -5 -3 -9 -19 -9 -36 1
-25 -7 -39 -38 -65 -21 -18 -45 -33 -53 -34 -18 0 -270 99 -276 110 -15 24 26
17 122 -20 135 -53 163 -58 186 -32 23 25 14 97 -10 88 -8 -3 -62 14 -120 39
-58 25 -108 44 -110 41 -5 -5 210 -96 226 -96 19 0 9 -74 -10 -78 -9 -2 -75
19 -147 45 -118 43 -132 51 -132 71 0 28 114 162 139 163 11 0 12 2 3 6 -10 4
-11 29 -6 110 l7 104 -41 -37 c-23 -21 -42 -42 -42 -48 0 -15 -218 -232 -225
-224 -4 3 16 25 43 47 27 23 64 61 83 84 35 45 18 30 -156 -140 -146 -141
-377 -353 -386 -353 -23 0 2 27 155 169 91 83 225 211 298 284 74 72 164 157
201 187 37 30 67 63 67 72 0 10 10 23 23 29 12 7 41 29 64 50 24 22 48 39 55
39 7 -1 26 -12 43 -25 l30 -25 91 91 91 90 78 -31 c42 -17 82 -29 88 -27 5 1
-24 16 -64 31 -41 16 -90 37 -109 48 l-34 20 -89 -91 c-49 -50 -94 -88 -99
-85 -12 8 125 158 168 185 l35 21 112 -42 c62 -23 127 -51 145 -61 l33 -19 -3
22 c-2 19 -20 30 -90 58 -49 19 -88 39 -88 45 0 6 11 22 25 35 l24 23 61 -27
c69 -29 70 -30 70 -17 0 5 -30 21 -67 35 l-67 26 -38 -42 c-20 -24 -37 -37
-38 -29 0 8 18 33 40 57 l40 44 0 89 c0 82 2 91 24 108 23 19 35 61 37 133 l1
35 7 -30 c4 -20 9 -26 14 -17 5 6 17 12 28 12 11 0 19 7 19 16 0 8 -4 12 -10
9 -6 -3 -10 -2 -10 4 0 5 4 13 10 16 6 3 10 30 10 58 l-1 52 -29 -35 c-28 -32
-90 -55 -90 -32 0 13 25 33 33 26 3 -3 24 13 46 35 32 32 41 48 41 76 0 35 -4
32 -292 -239 -160 -152 -295 -273 -300 -270 -5 3 -20 -2 -34 -11 -14 -9 -30
-15 -35 -13 -5 2 32 35 83 74 99 76 159 129 416 372 137 130 162 159 162 183
0 16 -4 29 -9 29 -5 0 -40 -29 -78 -64 -88 -83 -121 -108 -133 -104 -5 2 34
39 87 83 l96 80 -68 3 -67 3 -70 -58 c-164 -135 -519 -420 -593 -476 -71 -54
-172 -135 -245 -197 -14 -12 -18 -19 -10 -15 32 14 -110 -111 -220 -193 -63
-47 -121 -93 -128 -101 -9 -11 -11 -11 -6 -2 9 17 10 18 -114 -62 -51 -33 -90
-62 -87 -65 3 -3 46 23 95 57 50 34 90 60 90 58 0 -7 -263 -203 -290 -217 -20
-10 -17 -4 15 29 l40 42 -17 29 c-18 32 -14 36 26 20 17 -6 26 -6 26 0 0 11
114 86 263 174 94 55 303 214 294 223 -3 2 -49 -31 -104 -75 -54 -44 -161
-116 -238 -161 -128 -74 -175 -94 -175 -73 0 15 75 80 265 228 105 81 235 184
290 229 55 45 199 156 320 247 152 114 247 194 308 258 48 50 86 94 83 97 -2
3 -39 -25 -82 -61 -42 -36 -81 -66 -87 -66 -5 0 -5 -6 2 -13 15 -19 -15 -45
-259 -228 -113 -84 -250 -189 -305 -234 -55 -45 -190 -150 -300 -235 -110 -84
-252 -197 -315 -249 -63 -53 -185 -150 -272 -216 -86 -66 -154 -122 -152 -124
2 -2 85 58 186 134 101 75 188 139 195 142 14 6 35 -31 27 -49 -3 -7 -28 -31
-57 -53 -28 -22 -83 -69 -122 -105 -39 -36 -115 -101 -169 -144 -88 -72 -100
-79 -118 -67 -18 11 -27 8 -72 -23 -47 -32 -59 -36 -117 -36 l-64 1 30 22 c71
53 281 217 555 436 162 130 313 250 335 267 22 16 110 84 195 149 85 66 242
188 348 273 106 85 225 178 265 208 84 64 155 131 227 215 l52 59 -116 0
c-113 0 -118 -1 -186 -35 -57 -29 -74 -33 -90 -25 -21 11 -79 0 -110 -20 -13
-8 -12 -10 4 -10 19 0 19 0 0 -21 l-19 -22 32 5 c18 2 34 0 36 -5 2 -6 36 13
77 41 40 29 78 52 84 52 6 0 -11 -14 -37 -32 -27 -17 -45 -34 -40 -37 22 -16
2 -54 -24 -44 -11 4 -11 9 3 24 30 33 7 21 -81 -43 -48 -35 -109 -78 -138 -95
-29 -18 -85 -65 -124 -103 -59 -57 -219 -184 -293 -232 -49 -32 90 83 163 134
48 34 87 65 87 70 0 4 -11 15 -25 24 -24 16 -25 18 -9 35 10 11 20 19 24 19 4
0 50 43 101 96 52 53 110 105 129 115 26 14 28 18 10 13 -33 -9 -44 -18 -198
-164 -120 -112 -131 -126 -117 -140 15 -13 17 -13 26 3 6 9 15 15 20 11 14 -8
-4 -28 -90 -97 -41 -32 -100 -81 -130 -107 -131 -114 -685 -553 -931 -738
-272 -204 -334 -248 -390 -275 -30 -15 -86 -52 -125 -82 -125 -99 -410 -312
-477 -357 -36 -24 -104 -61 -152 -82 -47 -21 -86 -42 -86 -46 0 -7 -39 -3 -69
6 -31 10 12 34 157 88 l32 12 -24 23 -24 22 -61 -32 c-60 -32 -63 -32 -90 -16
-15 9 -71 32 -125 51 -85 31 -170 70 -112 52 291 -92 283 -92 400 -16 l76 50
35 -17 c19 -9 38 -25 41 -36 6 -18 7 -18 30 4 27 26 33 54 8 45 -20 -8 -84 20
-84 37 0 14 120 107 138 107 22 0 22 -33 0 -49 -44 -30 -83 -70 -69 -71 8 0
35 13 62 29 41 26 51 28 76 19 26 -10 35 -7 86 27 31 20 63 47 70 59 8 12 66
57 128 100 63 44 164 117 225 163 76 56 121 83 139 83 36 0 85 36 85 63 0 15
18 36 53 63 515 399 814 650 1037 870 230 227 343 320 485 397 l70 38 -95 -6
c-124 -7 -126 -7 -187 1 l-53 7 0 -47 c0 -40 3 -48 24 -56 44 -16 42 -31 -15
-81 l-54 -47 -7 56 c-18 158 -23 173 -58 171 -10 0 -11 -2 -2 -6 28 -11 10
-43 -49 -82 -34 -23 -67 -41 -75 -41 -8 0 -43 12 -78 26 -54 21 -63 29 -64 50
0 14 10 31 21 39 21 14 20 15 -14 15 l-36 0 5 -49 4 -49 -63 -46 c-35 -25 -67
-46 -71 -46 -4 0 -11 12 -14 26 -5 20 -1 31 20 50 19 19 26 35 26 64 0 21 6
41 13 43 7 3 5 6 -5 6 -10 1 -18 -3 -18 -8 0 -8 -104 -81 -115 -81 -3 0 -5 20
-5 45 0 29 -4 45 -12 45 -10 0 -12 -40 -10 -174 l3 -174 -63 -72 c-35 -40 -72
-85 -82 -102 -14 -22 -21 -26 -27 -16 -15 23 -11 28 70 112 l79 81 4 136 3
136 -70 -49 -70 -49 -5 -151 c-4 -109 -9 -153 -17 -156 -10 -3 -13 30 -13 144
0 148 0 148 -26 169 l-27 21 106 69 c59 38 104 71 102 74 -3 2 -53 -28 -111
-67 l-107 -72 -158 70 c-148 66 -229 87 -229 60 0 -5 -26 -27 -57 -50 -32 -22
-84 -58 -115 -80 -32 -23 -58 -48 -58 -56 0 -12 15 -5 53 22 141 102 177 125
177 112 0 -8 -47 -47 -105 -87 -109 -76 -129 -94 -123 -110 1 -5 55 29 118 75
66 48 117 79 119 73 4 -14 -11 -26 -147 -120 -56 -38 -107 -67 -112 -64 -6 4
-10 66 -10 151 l0 144 -25 0 -25 0 0 -165 c0 -91 -3 -165 -7 -165 -17 0 -113
46 -113 54 0 8 20 5 68 -9 35 -11 26 10 -18 39 -22 14 -40 33 -40 41 0 11 9 8
36 -10 20 -14 41 -25 46 -25 17 0 -2 19 -42 41 -22 13 -40 26 -40 31 0 11 11
9 40 -7 31 -18 40 -18 40 -2 0 7 -15 19 -34 25 -36 13 -63 38 -53 49 4 3 12 2
19 -4 7 -5 25 -14 41 -21 21 -9 27 -9 27 1 0 6 -17 19 -39 28 -22 10 -40 25
-44 38 -3 11 -1 21 4 21 5 0 9 -4 9 -8 0 -5 16 -16 35 -25 27 -13 35 -14 35
-3 0 7 -18 21 -39 31 -22 10 -42 24 -45 31 -3 8 -17 14 -31 14 l-25 0 -1 -237
c-1 -131 -4 -248 -7 -261 l-7 -22 -32 22 -33 23 0 238 0 237 -25 0 -25 0 0
-245 c0 -242 0 -245 -20 -233 -18 12 -20 24 -19 147 0 81 -4 138 -10 144 -8 8
-11 -5 -11 -43 l0 -54 -40 39 c-37 36 -40 44 -40 91 0 29 4 54 8 56 4 2 6 24
4 51 -3 33 -8 47 -19 47 -13 0 -14 -26 -11 -184 1 -101 6 -188 10 -192 4 -4
14 -1 23 6 13 11 15 7 15 -29 0 -31 -6 -48 -25 -67 -21 -20 -25 -35 -25 -79 0
-30 -4 -55 -8 -55 -15 0 -32 209 -32 403 l0 197 -35 0 -35 0 0 -196 0 -195
-22 7 c-13 4 -49 20 -80 36 -50 25 -58 33 -58 57 l0 29 44 -16 c76 -28 75 6 0
40 -24 10 -44 23 -44 28 0 14 15 12 57 -5 44 -18 43 -18 43 0 0 8 -23 26 -50
40 -28 14 -50 30 -50 35 0 13 0 13 50 -5 52 -18 50 -18 50 0 0 8 -23 26 -50
40 -28 14 -50 32 -50 40 0 14 4 14 36 0 79 -33 89 -4 14 38 -84 46 -80 57 -80
-198 0 -202 -2 -225 -16 -225 -15 0 -16 20 -10 225 6 160 5 225 -3 225 -7 0
-11 -35 -11 -100 0 -60 -4 -100 -10 -100 -6 0 -10 40 -10 100 0 93 -1 100 -20
100 -11 0 -20 -7 -20 -15 0 -19 -13 -19 -50 0 -24 13 -30 13 -30 2 0 -18 69
-51 71 -34 2 18 17 -92 18 -133 0 -26 -2 -31 -9 -20 -5 8 -10 40 -10 70 0 53
-1 56 -32 68 -17 6 -34 9 -37 6 -6 -6 31 -39 52 -47 6 -2 8 -8 4 -13 -4 -4
-17 -3 -27 4 -17 10 -20 10 -20 -6 0 -10 11 -24 25 -30 15 -7 25 -20 25 -33 0
-11 -3 -19 -7 -17 -5 2 -25 12 -45 23 l-38 19 0 78 0 78 -57 0 -58 0 32 -22
c31 -22 33 -26 33 -88 l0 -65 -54 -32 c-82 -47 -96 -50 -96 -18 0 34 -17 65
-35 65 -8 0 -15 5 -15 10 0 6 -5 10 -10 10 -6 0 -64 23 -130 51 -102 44 -120
55 -115 70 6 18 0 19 -82 19 -88 0 -89 -1 -161 -45 -78 -48 -82 -50 -82 -35 0
6 24 25 53 43 l52 32 -72 3 c-51 2 -81 -2 -102 -13 -38 -19 -55 -19 -71 0 -10
12 -39 15 -144 15 l-131 -1 -62 -37z m4107 18 c0 -13 -84 -50 -111 -50 -28 0
-59 18 -59 33 0 9 11 12 33 9 18 -2 48 1 67 6 47 14 70 14 70 2z m321 -6 c11
-13 10 -17 -5 -26 -9 -5 -20 -18 -24 -29 -7 -18 -9 -18 -31 -3 l-23 16 28 29
c32 34 37 35 55 13z m-1100 -82 c-27 -22 -41 -42 -41 -57 0 -13 -4 -27 -10
-30 -5 -3 -10 -21 -10 -40 0 -19 -4 -37 -10 -40 -6 -4 -10 26 -10 82 l0 88 58
37 c55 36 57 37 60 16 3 -15 -8 -31 -37 -56z m-2413 -9 c114 -51 123 -58 119
-80 -2 -13 0 -26 4 -29 11 -6 12 -215 1 -229 -17 -24 -119 -104 -125 -98 -4 3
-7 46 -7 94 0 96 -5 119 -26 119 -25 0 -15 19 26 46 55 36 50 41 -8 8 l-48
-27 -153 68 c-83 37 -148 71 -144 76 4 4 49 33 98 64 68 42 96 54 114 50 14
-4 80 -31 149 -62z m3552 27 c-37 -30 -102 -71 -85 -52 22 23 101 82 110 82 6
0 -6 -14 -25 -30z m-4040 -19 c-12 -23 -27 -26 -49 -12 -11 7 -7 14 20 30 36
22 47 15 29 -18z m3360 15 c0 -22 -29 -41 -42 -28 -9 9 -7 17 7 32 18 20 35
18 35 -4z m445 15 c8 -14 -30 -32 -50 -25 -12 5 -13 9 -4 20 13 16 45 19 54 5z
m-1035 -150 c0 -93 -3 -121 -15 -131 -13 -11 -15 3 -15 112 0 69 3 128 7 131
18 19 23 -3 23 -112z m598 -38 c-13 -14 -49 -48 -80 -75 l-58 -50 0 75 0 75
78 62 77 62 3 -62 c3 -54 0 -66 -20 -87z m-3278 83 c0 -30 -4 -58 -10 -61 -6
-4 -10 17 -10 54 0 34 4 61 10 61 6 0 10 -24 10 -54z m2248 -1 c34 -15 61 -32
59 -38 -2 -6 -29 -30 -60 -55 l-57 -45 -72 33 c-40 18 -78 34 -84 37 -14 5
-34 -48 -34 -88 0 -45 27 -36 35 11 8 45 25 51 63 24 18 -13 22 -22 17 -44 -6
-27 -3 -29 52 -50 76 -28 83 -35 83 -81 0 -36 -4 -41 -61 -80 -56 -38 -63 -40
-90 -29 -23 10 -29 19 -29 42 0 19 -6 30 -17 34 -36 10 -263 126 -263 133 0 5
24 24 53 44 76 52 135 95 212 154 76 59 53 59 193 -2z m377 -214 c-13 -14 -15
-2 -15 115 0 91 4 134 13 143 10 10 13 -13 15 -115 2 -104 0 -131 -13 -143z
m415 213 c0 -6 -42 -43 -92 -82 l-93 -69 -43 21 -44 21 33 25 c17 14 63 46
100 72 65 43 71 45 104 35 19 -6 35 -16 35 -23z m-3100 -29 c0 -50 -2 -56 -30
-70 -16 -8 -31 -15 -35 -15 -3 0 -5 26 -5 58 0 51 3 60 23 70 42 20 47 15 47
-43z m2645 -214 c-13 -14 -15 -2 -15 115 0 91 4 134 13 143 10 10 13 -13 15
-115 2 -104 0 -131 -13 -143z m-1795 224 c17 -9 30 -20 30 -24 0 -5 3 -16 6
-24 3 -9 -8 -23 -32 -38 -21 -13 -32 -25 -25 -27 7 -2 18 1 24 7 15 15 37 14
37 -1 0 -7 -24 -27 -53 -45 -39 -23 -56 -29 -69 -22 -12 6 -18 6 -18 0 0 -5
-33 5 -72 24 -40 18 -73 39 -73 46 0 15 172 118 198 118 10 1 31 -6 47 -14z
m3060 -3 c0 -10 -16 -33 -35 -52 -32 -31 -35 -32 -35 -12 0 12 6 22 14 22 8 0
18 5 22 11 4 7 0 9 -14 5 -15 -5 -24 -1 -32 15 -8 14 -8 19 -1 15 6 -4 19 -2
28 3 28 16 53 13 53 -7z m-138 -42 c-22 -22 -45 -40 -49 -40 -8 1 78 80 87 80
2 0 -15 -18 -38 -40z m-2813 21 c12 -8 13 -14 3 -36 -16 -34 -36 -27 -40 13
-3 33 9 41 37 23z m1482 -12 c16 -11 29 -28 29 -38 0 -9 -20 -36 -44 -60 -48
-47 -53 -47 -129 -9 l-38 19 68 54 c37 30 72 55 76 55 5 0 22 -9 38 -21z
m1859 17 c0 -11 -107 -106 -120 -106 -8 0 12 25 45 55 54 48 75 63 75 51z
m-470 -47 c0 -22 -5 -29 -20 -29 -28 0 -36 27 -15 50 22 25 35 17 35 -21z
m-2157 -110 c-4 -4 -6 24 -3 64 l5 72 3 -64 c2 -35 -1 -68 -5 -72z m1470 89
c32 -30 53 -104 36 -124 -7 -8 -20 -12 -31 -8 -13 4 -36 -7 -74 -36 -30 -22
-59 -38 -64 -35 -20 12 -9 35 36 71 25 21 41 40 35 42 -6 2 -25 -8 -42 -22
-36 -31 -49 -33 -49 -7 0 11 -2 26 -6 34 -3 9 16 30 57 61 35 25 66 46 70 46
4 0 19 -10 32 -22z m477 18 c0 -3 -21 -19 -46 -36 -30 -20 -50 -28 -56 -22 -6
6 6 19 34 36 39 23 68 33 68 22z m-3420 -76 c79 -38 146 -72 147 -77 2 -4 -14
-16 -35 -25 -20 -9 -64 -32 -97 -52 l-61 -35 -157 72 c-86 40 -157 74 -157 77
0 13 167 109 190 109 14 0 90 -31 170 -69z m4281 43 c-36 -50 -742 -733 -758
-733 -4 0 97 106 224 236 128 130 230 240 227 245 -3 5 -2 14 2 20 4 7 9 8 13
1 3 -5 69 50 146 124 133 127 193 170 146 107z m-841 8 c0 -13 -70 -55 -78
-46 -4 3 0 10 8 15 8 5 24 16 35 24 23 18 35 20 35 7z m-1070 -296 c17 -9 30
-22 30 -30 0 -13 -217 -185 -233 -185 -4 0 -7 24 -7 53 l0 53 75 53 c73 52
133 108 70 65 -16 -12 -36 -24 -42 -28 -10 -6 -13 20 -13 116 l0 124 43 32 42
33 3 -135 3 -136 29 -15z m300 269 l40 -16 0 -128 c0 -120 -9 -164 -24 -123
-6 14 -11 11 -29 -18 l-22 -34 -3 44 c-3 39 1 48 32 80 20 20 36 45 36 55 0
15 -7 12 -42 -16 -80 -65 -139 -108 -149 -108 -23 0 17 43 91 100 43 33 82 65
86 72 7 11 -27 -12 -128 -88 l-48 -36 0 49 c0 45 4 53 45 93 27 27 45 53 45
67 0 27 15 29 70 7z m-1125 -13 c3 -6 -4 -15 -15 -21 -17 -9 -20 -8 -20 10 0
20 24 28 35 11z m1905 -6 c-20 -24 -110 -88 -116 -82 -5 5 113 97 124 97 3 0
-1 -7 -8 -15z m-2760 -14 c0 -9 -129 -91 -143 -91 -4 0 -7 6 -7 14 0 8 15 20
33 26 17 6 48 22 67 35 38 26 50 30 50 16z m961 -37 c10 -9 67 -42 126 -73
l108 -56 3 -80 3 -81 -41 -44 -40 -43 0 -198 0 -197 47 -27 c44 -26 45 -29 27
-42 -31 -24 -152 -83 -169 -83 -9 0 -15 -9 -15 -25 0 -14 -4 -25 -10 -25 -5 0
-10 16 -10 35 0 32 -4 37 -61 66 -65 32 -76 49 -16 24 52 -21 57 -19 57 23 0
36 -2 39 -50 59 -27 12 -50 26 -50 32 0 6 22 0 50 -14 l50 -25 0 129 0 129
-77 39 c-43 22 -89 44 -103 48 -14 4 -92 39 -174 77 -137 64 -152 69 -175 57
-14 -8 -29 -15 -33 -17 -17 -8 -7 36 12 53 20 18 22 18 58 -2 44 -25 311 -148
341 -158 15 -5 32 3 63 28 63 50 62 50 128 17 l60 -30 0 84 0 83 -42 29 c-24
15 -83 49 -132 74 -50 25 -91 50 -93 55 -2 8 121 94 136 95 3 0 12 -7 22 -16z
m2584 -20 c-16 -13 -34 -24 -40 -24 -5 0 6 14 25 29 19 16 37 27 40 24 3 -2
-8 -16 -25 -29z m-375 -24 c-52 -47 -76 -61 -68 -41 5 14 101 91 113 91 5 0
-15 -23 -45 -50z m-3170 28 c0 -11 -128 -98 -144 -98 -22 0 4 25 67 64 82 52
77 50 77 34z m-502 -112 c2 -47 -2 -83 -8 -92 -13 -14 -5 -34 13 -34 6 0 46
23 90 52 l79 52 42 -22 c98 -52 104 -58 110 -104 3 -24 7 -112 9 -196 l4 -152
-38 -10 c-21 -6 -86 -39 -144 -75 -58 -35 -114 -67 -125 -70 -19 -6 -172 64
-185 85 -10 17 9 12 78 -21 36 -16 75 -31 86 -32 12 -1 21 -6 21 -12 0 -6 3
-6 8 1 4 6 65 49 135 94 70 45 126 84 124 87 -3 2 -56 -28 -118 -68 -125 -78
-139 -86 -139 -71 0 5 58 45 130 88 71 43 130 83 130 87 0 9 -60 -24 -180 -96
-36 -22 -68 -41 -72 -44 -5 -2 -8 4 -8 15 0 12 40 45 125 103 l125 84 0 51 c0
38 -5 55 -20 69 -19 17 -23 15 -151 -63 l-131 -82 -74 32 c-70 31 -88 48 -63
64 6 4 42 -8 80 -27 l69 -33 23 22 c17 17 19 25 9 31 -7 4 -10 15 -6 24 8 22
-2 21 -35 -2 -27 -20 -28 -20 -66 3 l-38 23 37 28 c62 47 33 39 -50 -14 l-79
-50 -5 122 c-3 67 -6 123 -5 123 2 10 184 113 195 111 12 -2 16 -20 18 -81z
m627 64 c-9 -14 -65 -42 -65 -33 0 9 50 42 63 43 5 0 5 -5 2 -10z m170 -4 c19
-8 35 -22 35 -30 0 -9 -3 -16 -6 -16 -8 0 -94 51 -94 56 0 9 32 3 65 -10z
m-295 -5 c0 -12 -140 -94 -147 -87 -8 8 -10 6 71 55 77 45 76 45 76 32z m203
-10 c24 -11 69 -31 100 -46 l56 -26 21 21 c11 11 29 20 40 20 17 0 20 -7 20
-45 0 -34 -4 -45 -16 -45 -8 0 -36 -17 -62 -38 -64 -53 -163 -113 -174 -105
-6 3 -1 10 9 17 75 44 202 133 202 141 0 6 -3 16 -8 24 -7 10 -21 5 -67 -26
-77 -52 -176 -109 -203 -118 -16 -5 -50 6 -117 36 -52 24 -94 46 -94 49 0 4
240 159 247 160 1 0 21 -9 46 -19z m2356 -5 c9 -11 3 -21 -30 -50 -46 -39 -54
-42 -65 -25 -6 10 62 89 77 89 4 0 12 -6 18 -14z m-2579 -41 c-18 -22 -99 -67
-113 -62 -6 2 18 20 53 40 73 41 77 43 60 22z m-901 -44 l98 -50 6 -107 c10
-162 9 -220 -4 -207 -6 6 -13 66 -16 137 -3 70 -9 129 -14 131 -4 3 -43 -17
-86 -43 -75 -47 -78 -50 -81 -91 -2 -22 -7 -41 -11 -41 -36 0 -67 82 -36 94
34 13 207 118 202 122 -5 5 -130 -59 -154 -78 -7 -5 -21 -7 -33 -3 -17 6 -14
10 27 32 56 29 73 43 53 43 -8 0 -33 -10 -55 -23 l-40 -22 -52 28 c-29 16 -61
27 -70 25 -13 -3 -3 -12 31 -30 35 -18 50 -32 53 -49 1 -13 6 -46 9 -73 6 -48
7 -49 66 -75 l60 -28 -32 -26 c-17 -15 -35 -27 -40 -27 -4 0 -47 21 -94 46
-48 25 -90 44 -93 41 -3 -3 36 -26 86 -52 l92 -46 -30 -24 c-16 -14 -34 -25
-40 -25 -6 0 -53 21 -105 47 -106 53 -106 51 -106 188 l0 70 52 32 c38 24 54
29 60 20 5 -8 8 -7 8 4 0 19 143 109 173 109 9 0 62 -22 116 -49z m1730 -2
c156 -68 163 -73 159 -110 -2 -24 -16 -40 -64 -74 l-61 -44 -171 81 c-95 45
-172 84 -172 87 1 12 155 110 174 110 11 1 71 -22 135 -50z m671 12 c0 -4 -8
-15 -19 -25 -17 -15 -18 -29 -13 -155 l5 -139 -83 -61 c-45 -34 -85 -61 -89
-61 -5 0 -11 30 -14 68 l-6 67 51 45 c126 110 120 102 116 143 l-3 38 -85 -60
c-47 -34 -90 -61 -97 -61 -22 0 -63 23 -63 36 0 6 59 52 132 102 106 72 136
88 150 81 10 -5 18 -13 18 -18z m440 -43 l-1 -53 -114 -90 c-63 -49 -122 -89
-131 -87 -29 6 -54 -28 -54 -74 0 -37 -5 -48 -37 -78 -68 -62 -256 -216 -265
-216 -4 0 -8 24 -8 53 l0 53 63 46 c34 25 71 56 82 68 11 12 -20 -7 -68 -44
-80 -60 -127 -81 -127 -56 0 5 15 17 33 26 17 9 60 36 95 60 35 24 75 51 90
59 53 28 57 32 44 48 -10 11 18 37 161 145 94 72 185 144 201 161 17 17 31 31
33 31 2 0 3 -24 3 -52z m1088 43 c-5 -15 -122 -110 -128 -104 -6 6 109 113
122 113 6 0 8 -4 6 -9z m385 -8 c11 -11 -34 -52 -50 -46 -11 4 -10 10 8 29 24
25 31 28 42 17z m-2128 -35 c32 -14 32 -20 -4 -41 -24 -14 -30 -15 -34 -3 -5
13 1 56 9 56 2 0 15 -5 29 -12z m2260 -48 c-10 -11 -23 -20 -28 -20 -6 0 0 11
13 25 27 29 42 25 15 -5z m-3609 11 c5 -5 48 -26 97 -47 l87 -37 0 -90 c0 -66
-3 -88 -12 -85 -9 3 -14 31 -16 80 l-3 76 -89 47 c-50 25 -90 50 -90 55 0 12
13 13 26 1z m2344 -34 c0 -11 -91 -87 -105 -87 -17 0 2 24 48 59 59 46 57 45
57 28z m-1890 -21 c0 -7 -28 -31 -62 -52 -80 -50 -92 -54 -109 -42 -11 8 -11
9 3 5 9 -3 18 -2 20 3 2 7 136 99 146 100 1 0 2 -6 2 -14z m258 -76 c176 -82
175 -80 96 -126 l-42 -25 -151 76 c-93 46 -151 81 -151 90 0 14 68 66 82 62 3
-1 78 -36 166 -77z m2372 -85 c-116 -116 -157 -150 -208 -175 -36 -17 -84 -44
-108 -61 l-44 -30 2 26 c2 16 8 25 19 25 10 0 62 42 116 93 203 191 338 295
358 276 6 -6 -42 -61 -135 -154z m450 157 c0 -14 -56 -63 -63 -55 -4 3 5 19
20 35 27 28 43 35 43 20z m-1162 -14 c-5 -14 -108 -97 -121 -98 -17 0 -1 19
53 63 56 47 75 56 68 35z m512 -33 c-7 -8 -17 -15 -22 -15 -6 0 -5 7 2 15 7 8
17 15 22 15 6 0 5 -7 -2 -15z m-2430 0 c0 -20 -165 -123 -177 -111 -8 8 -11 6
87 65 89 53 90 54 90 46z m2858 -82 c-34 -33 -36 -34 -68 -21 l-34 14 21 21
c12 12 19 24 16 27 -4 3 6 6 22 6 l28 0 -23 -25 c-38 -41 -15 -40 26 1 24 24
39 33 42 25 3 -8 -11 -29 -30 -48z m-2720 -25 c75 -40 146 -78 157 -84 17 -8
31 -3 85 33 76 50 90 53 90 16 -1 -29 -37 -58 -123 -99 l-38 -18 -155 77
c-164 82 -184 86 -229 47 -29 -26 -85 -52 -98 -46 -7 2 -4 5 6 5 9 1 17 5 17
11 0 5 18 19 40 30 21 11 45 30 51 43 15 29 40 57 51 57 5 0 70 -33 146 -72z
m-208 28 c0 -2 -25 -22 -55 -44 -30 -23 -55 -37 -55 -33 0 5 21 25 48 45 43
32 62 42 62 32z m2399 -3 c-1 -13 -153 -143 -159 -137 -6 7 139 144 152 144 4
0 8 -3 7 -7z m-679 -32 c0 -13 -77 -64 -91 -59 -7 2 8 18 31 36 45 33 60 39
60 23z m70 -9 c0 -19 -156 -139 -167 -128 -9 9 7 26 80 81 71 54 87 63 87 47z
m1070 -2 c0 -13 -11 -13 -30 0 -12 8 -11 10 8 10 12 0 22 -4 22 -10z m-3737
-37 c39 -20 67 -38 60 -40 -11 -4 -153 63 -153 72 0 11 25 3 93 -32z m-292
-14 l79 -41 -71 -44 c-39 -24 -76 -44 -81 -44 -16 0 -80 41 -104 66 l-20 21
42 27 c23 15 48 33 54 41 7 8 15 15 17 15 3 0 41 -19 84 -41z m1341 -11 c49
-23 88 -44 88 -48 0 -4 -16 -15 -35 -26 l-36 -19 -84 43 c-47 24 -85 48 -85
52 0 11 40 40 55 40 5 0 49 -19 97 -42z m-253 -67 c173 -86 242 -108 97 -31
-79 42 -84 46 -69 63 15 16 17 16 27 -5 7 -14 54 -45 118 -78 l106 -55 47 34
47 33 34 -18 c19 -10 34 -21 34 -24 0 -11 -102 -65 -117 -62 -9 2 -42 16 -74
32 -32 15 -61 25 -64 22 -3 -3 -3 -79 1 -167 l7 -161 -51 -37 -51 -36 -3 -161
c-2 -88 -1 -160 2 -160 3 0 15 8 28 18 22 17 23 22 19 152 l-3 135 -2 -137
c-1 -84 -6 -138 -12 -138 -6 0 -10 55 -10 146 0 88 4 143 9 139 6 -3 13 0 18
7 4 7 18 22 31 32 l22 19 -1 -169 c-1 -193 -6 -194 -18 -3 l-9 134 1 -159 0
-159 -47 -35 -46 -34 0 331 c0 214 -4 331 -10 331 -15 0 -16 -20 -18 -392 l-2
-286 -80 31 -79 32 -2 125 c0 69 -4 150 -7 180 l-7 55 -67 34 -68 34 0 78 0
78 -75 37 c-45 22 -75 43 -76 53 0 11 -4 9 -11 -7 -15 -31 -116 -88 -131 -73
-12 12 10 39 84 102 l47 39 108 -53 c60 -29 144 -68 186 -87 42 -18 79 -40 82
-49 3 -11 4 -9 3 3 -1 15 -48 43 -179 110 -97 50 -179 94 -183 98 -3 3 39 36
94 73 56 37 104 71 106 76 8 11 24 4 214 -90z m2901 64 c-40 -48 -312 -297
-318 -290 -9 9 298 304 317 305 11 0 11 -3 1 -15z m-3683 -35 c112 -55 106
-69 -7 -17 -49 22 -90 44 -90 49 0 13 10 10 97 -32z m1484 19 c23 -11 39 -22
37 -25 -7 -6 -88 28 -88 38 0 12 6 10 51 -13z m-90 -101 c1 -99 1 -102 14 -63
l13 40 1 -46 c1 -26 -5 -53 -14 -65 -11 -15 -14 -60 -15 -226 0 -135 -4 -209
-11 -213 -6 -4 -12 -5 -15 -3 -7 8 -17 623 -10 651 3 15 13 27 21 27 12 0 15
-19 16 -102z m-1569 1 c9 -127 9 -231 -1 -225 -5 3 -12 67 -16 141 -4 74 -11
135 -15 135 -23 0 -27 -32 -18 -154 8 -116 7 -148 -7 -135 -2 3 -8 62 -11 131
-5 94 -10 125 -19 121 -10 -3 -12 -37 -9 -131 2 -94 1 -114 -6 -77 -4 28 -9
82 -9 122 -1 63 -3 72 -17 66 -15 -5 -16 -20 -10 -124 5 -78 4 -119 -3 -124
-7 -4 -11 17 -11 63 0 93 -10 163 -23 155 -6 -4 -7 -50 -3 -129 5 -75 4 -124
-2 -124 -11 0 -22 97 -22 199 l0 76 88 52 c48 28 92 50 97 49 6 -1 13 -40 17
-87z m231 3 c34 -14 50 -32 27 -32 -16 0 -180 84 -180 92 0 4 26 -4 58 -18 31
-15 74 -33 95 -42z m1097 27 c0 -7 -75 -59 -85 -59 -3 0 -5 9 -5 20 0 25 71
75 82 57 4 -6 8 -15 8 -18z m340 11 c0 -5 -7 -7 -15 -4 -8 4 -15 8 -15 10 0 2
7 4 15 4 8 0 15 -4 15 -10z m1480 -49 c-25 -22 -47 -37 -50 -34 -7 7 67 73 82
73 7 0 -7 -18 -32 -39z m-2897 -45 c10 3 17 1 17 -6 0 -6 -4 -9 -9 -6 -5 4
-11 2 -13 -3 -4 -12 -168 65 -168 79 0 6 35 -7 78 -30 47 -24 85 -38 95 -34z
m1420 42 c15 -5 27 -16 27 -24 0 -11 -8 -10 -39 6 -42 21 -70 50 -35 36 10 -5
31 -13 47 -18z m-1163 -8 c0 -5 -9 -14 -20 -20 -22 -12 -27 -1 -8 18 14 14 28
16 28 2z m3030 -13 c-130 -119 -257 -219 -175 -137 50 49 169 149 180 149 5 1
3 -5 -5 -12z m-1015 -27 c-10 -11 -23 -20 -28 -20 -6 0 -2 9 8 20 10 11 23 20
28 20 6 0 2 -9 -8 -20z m-1125 -72 l-1 -83 -54 -37 c-29 -21 -59 -38 -64 -38
-6 0 -11 -4 -11 -10 0 -18 25 -10 78 25 l52 36 0 -76 c0 -45 -4 -74 -9 -70 -6
3 -14 -3 -20 -12 -8 -14 -10 -14 -11 -3 0 22 -33 -14 -35 -40 -2 -27 3 -25 42
12 l33 32 0 -27 c0 -15 -6 -27 -13 -27 -7 0 -28 -11 -47 -24 -19 -12 -43 -22
-52 -20 -11 1 -18 -4 -18 -15 0 -32 12 -30 71 10 l59 40 0 -106 c0 -131 -8
-148 -95 -205 -80 -52 -97 -48 -20 5 58 40 60 42 46 63 -6 10 -18 4 -50 -22
-41 -35 -43 -35 -72 -21 -20 11 -29 23 -29 40 l0 25 33 -20 c49 -30 56 -26 59
37 3 55 4 56 21 39 10 -10 16 -25 13 -32 -3 -8 -3 -14 0 -14 8 0 59 34 66 45
17 23 6 25 -23 5 -16 -12 -33 -20 -36 -16 -3 3 2 8 11 12 9 3 16 13 16 22 0 8
7 24 17 34 23 26 9 34 -21 11 -25 -18 -37 -51 -13 -37 7 5 6 0 -3 -11 -14 -18
-15 -18 -18 3 l-3 22 -32 -23 c-18 -12 -34 -23 -36 -24 -2 -2 4 -12 13 -22 26
-29 12 -44 -23 -26 -16 8 -31 11 -35 8 -3 -4 -6 33 -6 81 l0 87 22 -15 c28
-20 65 -22 51 -3 -5 6 -8 27 -6 46 2 23 -2 38 -15 47 -23 18 -32 17 -32 -1 0
-8 -4 -15 -10 -15 -6 0 -10 32 -10 75 l0 76 30 -16 c34 -17 50 -19 50 -5 0 6
-17 18 -37 28 -21 9 -41 22 -45 27 -4 6 -8 51 -8 102 l0 91 55 -30 c61 -33 73
-32 131 12 21 16 40 30 42 30 1 0 2 -37 2 -82z m636 55 c-8 -8 -36 5 -36 17 0
7 6 7 21 0 11 -7 18 -14 15 -17z m-37 -9 c3 -2 -8 -17 -24 -34 -27 -28 -29
-29 -58 -13 l-31 16 28 24 c22 18 35 23 55 18 14 -4 28 -9 30 -11z m-1818 -39
c49 -25 95 -43 101 -39 7 4 8 3 4 -4 -4 -7 -14 -12 -21 -12 -20 0 -185 83
-185 92 0 13 5 11 101 -37z m2199 -27 c-30 -28 -60 -37 -60 -19 0 5 17 23 37
40 27 22 39 27 45 18 5 -7 -3 -22 -22 -39z m605 7 c-27 -25 -54 -45 -60 -45
-5 1 13 21 40 45 28 25 55 44 60 44 6 0 -12 -20 -40 -44z m-2746 -52 c18 -8
30 -17 27 -20 -8 -8 -176 67 -176 78 0 5 26 -3 58 -17 31 -14 72 -33 91 -41z
m362 41 c58 -26 59 -27 42 -47 -17 -19 -17 -20 3 -9 20 11 21 9 27 -75 7 -97
4 -104 -56 -135 -36 -18 -41 -18 -49 -4 -5 9 -40 32 -79 51 -66 34 -69 37 -69
71 0 20 3 34 8 32 61 -30 127 -58 134 -58 28 0 -6 26 -70 52 -40 17 -72 37
-72 44 0 9 20 4 67 -17 l67 -30 20 23 c15 15 16 18 3 8 -16 -11 -26 -9 -77 15
-33 16 -60 31 -60 34 0 5 90 69 99 70 2 1 30 -11 62 -25z m1796 -19 c-27 -25
-53 -42 -58 -39 -12 7 71 83 91 83 8 0 -7 -20 -33 -44z m-2234 -26 c34 -18 73
-35 87 -39 20 -6 22 -9 9 -14 -15 -7 -179 66 -179 79 0 11 24 3 83 -26z m1794
-63 c-6 -62 -28 -96 -65 -96 -29 0 -133 43 -129 54 5 15 180 114 191 108 5 -3
6 -32 3 -66z m-2289 23 c64 -28 90 -49 62 -49 -17 0 -160 74 -160 83 0 10 -2
11 98 -34z m2612 27 c0 -12 -101 -76 -111 -71 -6 5 8 21 37 41 42 30 74 43 74
30z m519 -9 c-2 -2 -24 -18 -49 -34 -25 -17 -65 -49 -89 -72 -50 -46 -51 -47
-51 -27 0 18 178 149 189 140 2 -2 2 -6 0 -7z m-2789 -48 c-57 -49 -103 -77
-135 -84 l-30 -6 30 14 c17 8 59 36 94 61 74 52 93 59 41 15z m2259 -7 c-60
-44 -82 -56 -77 -41 7 22 92 83 96 69 2 -6 -6 -19 -19 -28z m1181 25 c0 -17
-277 -270 -291 -265 -8 3 276 277 289 278 1 0 2 -6 2 -13z m-611 -43 c-6 -7
-19 -16 -28 -19 -10 -3 -24 -17 -31 -30 -14 -26 -51 -33 -80 -15 -12 7 -11 13
9 34 23 24 26 25 43 9 19 -17 26 -5 7 14 -8 8 -5 15 11 26 28 20 88 4 69 -19z
m-2531 -104 c1 -9 -17 -26 -45 -42 -27 -15 -58 -35 -70 -44 -21 -15 -23 -15
-23 -1 0 9 27 32 60 53 33 20 58 39 55 42 -2 3 -36 -15 -73 -41 l-69 -45 -81
44 c-45 25 -84 49 -87 53 -3 5 20 32 51 60 l56 51 111 -58 c62 -31 113 -64
115 -72z m2562 85 c0 -19 -101 -95 -127 -95 -11 0 -26 7 -33 16 -12 13 -10 14
12 3 23 -10 29 -8 50 10 12 12 38 31 56 43 17 11 30 24 26 29 -3 5 0 9 5 9 6
0 11 -7 11 -15z m-225 -92 c-46 -40 -152 -123 -157 -123 -2 0 -4 11 -4 24 0
13 5 22 11 20 6 -3 49 24 96 59 88 68 122 80 54 20z m-595 30 c0 -8 -82 -63
-94 -63 -16 0 -3 19 31 43 37 26 63 34 63 20z m-1277 -18 c41 -17 47 -34 46
-135 l0 -75 -45 -21 -44 -21 -5 21 c-3 12 -7 48 -9 81 -2 33 -2 -38 0 -157 l3
-218 -32 14 c-18 7 -49 22 -69 32 l-38 18 -2 155 c-1 86 -3 132 -5 104 -2 -29
-6 -53 -8 -53 -2 0 -33 13 -69 30 l-66 29 0 56 c0 30 2 55 5 55 3 0 33 -14 66
-31 34 -17 63 -28 65 -26 14 14 -16 39 -77 64 -48 19 -69 33 -69 46 0 9 2 17
4 17 2 0 34 -14 71 -32 l67 -31 55 29 c29 16 61 37 70 47 20 21 40 22 86 2z
m1260 -61 c-32 -24 -64 -44 -70 -44 -26 0 -11 21 44 64 43 34 60 43 70 34 10
-8 0 -20 -44 -54z m-1713 11 c0 -9 -142 -96 -148 -91 -7 7 -10 5 73 54 74 44
75 45 75 37z m2400 -4 c0 -11 -89 -91 -100 -91 -4 0 -18 9 -31 20 l-24 19 30
25 c33 27 47 26 23 -1 -44 -51 -32 -48 62 18 28 20 40 23 40 10z m-1485 -11
c3 -5 -1 -10 -9 -10 -9 0 -16 5 -16 10 0 6 4 10 9 10 6 0 13 -4 16 -10z m-40
-10 c3 -5 1 -10 -4 -10 -6 0 -11 5 -11 10 0 6 2 10 4 10 3 0 8 -4 11 -10z
m1259 2 c10 -16 -61 -75 -83 -69 -11 3 -22 0 -25 -7 -2 -6 -5 -3 -5 6 -1 9 16
30 36 47 37 30 67 39 77 23z m-2124 -121 c0 -55 2 -106 5 -113 3 -8 -26 -45
-71 -91 -42 -42 -71 -77 -64 -77 12 0 64 49 91 85 7 11 22 26 32 34 16 12 17
9 17 -51 l0 -65 -59 -31 c-32 -18 -64 -39 -72 -48 -12 -15 -14 -14 -20 3 -4
10 -8 61 -8 114 -1 53 -4 130 -7 172 l-7 76 -58 25 c-33 14 -59 28 -59 30 0 7
39 -8 81 -29 36 -19 60 -13 133 34 28 17 54 31 58 31 4 0 8 -45 8 -99z m904
84 c6 -17 4 -18 -18 -9 -20 8 -21 24 -2 24 8 0 16 -7 20 -15z m2254 -6 c2 -9
-121 -134 -290 -296 -161 -154 -308 -303 -326 -329 l-34 -49 43 50 c95 112
287 280 346 302 11 4 13 -15 12 -88 0 -52 -3 -103 -6 -114 -3 -11 -34 -42 -69
-70 l-64 -49 45 -28 c25 -16 63 -36 85 -44 37 -15 40 -19 40 -55 l0 -39 -67
51 c-38 29 -85 68 -106 86 -21 19 -44 32 -50 30 -7 -2 -13 -21 -15 -43 -3 -35
2 -44 43 -84 l45 -44 0 31 c0 17 -3 33 -7 35 -13 5 -55 69 -50 75 3 2 49 -30
102 -72 68 -54 94 -81 91 -93 -2 -9 -8 -138 -11 -287 l-7 -270 -63 67 c-70 73
-128 155 -170 238 l-28 55 6 157 c5 123 4 157 -7 161 -20 8 -113 -69 -142
-119 -32 -55 -35 -122 -7 -185 23 -51 239 -356 292 -412 38 -40 61 -56 90 -62
9 -2 37 -17 62 -33 24 -16 152 -85 284 -153 132 -67 243 -127 247 -133 4 -6 8
-7 8 -3 0 5 5 5 10 2 8 -5 7 -12 -2 -23 -9 -11 -9 -14 -1 -9 15 9 93 -29 93
-44 0 -6 -6 -9 -12 -6 -7 2 -30 10 -50 18 -21 7 -40 20 -43 28 -3 9 -34 29
-70 45 -35 15 -146 73 -247 128 -101 56 -242 129 -313 163 -72 35 -137 71
-146 82 -9 10 -27 43 -41 73 -14 30 -63 111 -108 180 -118 178 -134 215 -134
320 0 69 6 103 32 180 32 95 33 96 145 212 61 64 139 137 172 161 33 24 130
108 215 185 85 78 160 140 165 139 6 -2 11 -10 13 -18z m-1158 -22 c0 -2 -12
-14 -27 -28 l-28 -24 24 28 c23 25 31 32 31 24z m600 -1 c0 -11 -19 -15 -25
-6 -3 5 1 10 9 10 9 0 16 -2 16 -4z m-1200 -31 c7 -8 10 -16 6 -16 -3 -1 -10
-2 -15 -3 -6 0 -16 -7 -22 -13 -16 -16 -41 -17 -57 -1 -9 9 -6 16 16 30 33 22
56 23 72 3z m146 -30 c-38 -19 -71 -33 -74 -31 -6 6 110 65 128 65 8 0 -16
-15 -54 -34z m375 -9 c-13 -14 -55 -47 -95 -73 -90 -62 -101 -69 -93 -56 4 6
44 36 91 67 46 31 89 63 96 71 7 8 15 15 18 15 3 0 -5 -11 -17 -24z m-487 1
c16 -12 16 -14 -3 -39 -25 -31 -152 -98 -186 -98 -33 0 -58 36 -43 63 5 11 13
16 17 11 3 -5 13 -10 21 -12 8 -2 22 -10 32 -19 14 -13 19 -13 45 3 70 43 103
67 103 77 0 5 -10 2 -22 -7 -52 -36 -58 -38 -58 -15 0 14 5 19 14 16 8 -3 22
3 32 14 20 22 25 23 48 6z m295 0 c8 -11 5 -19 -13 -36 -21 -20 -27 -21 -47
-10 l-23 12 28 23 c31 28 39 29 55 11z m1391 -72 c-67 -66 -102 -90 -99 -67 1
10 152 141 164 141 6 1 -24 -33 -65 -74z m-2880 -6 c0 -5 -26 3 -57 17 -32 14
-64 28 -70 31 -7 3 -13 9 -13 13 0 5 32 -5 70 -22 39 -17 70 -35 70 -39z
m1071 53 c14 -12 20 -25 16 -35 -8 -22 -35 -21 -70 2 l-29 19 23 16 c29 20 32
20 60 -2z m304 8 c3 -5 0 -10 -7 -10 -7 0 6 -12 30 -26 23 -14 42 -31 42 -38
0 -11 -111 -96 -125 -96 -17 0 3 23 51 60 30 23 53 44 50 47 -3 3 -23 -9 -45
-26 -39 -31 -39 -31 -75 -14 -30 14 -34 19 -23 31 19 24 -22 0 -95 -56 -35
-27 -139 -99 -233 -162 -93 -62 -192 -132 -220 -155 -50 -42 -399 -275 -412
-275 -10 0 -43 -32 -43 -42 0 -5 12 -1 28 9 26 18 44 27 120 59 51 22 37 7
-20 -22 -57 -29 -104 -60 -128 -85 -22 -24 -100 -82 -104 -78 -1 2 -1 40 2 84
4 80 4 80 43 109 27 21 39 38 39 54 0 25 0 25 -22 6 -13 -10 -38 -32 -55 -48
l-33 -30 0 -113 c0 -62 3 -113 7 -113 3 0 32 22 62 48 61 52 185 124 381 222
137 68 141 71 123 77 -22 8 -14 23 11 23 13 0 43 -16 66 -35 23 -19 90 -60
148 -91 175 -93 328 -176 473 -258 112 -62 142 -75 166 -70 31 6 80 -13 100
-38 6 -7 13 -25 17 -40 5 -24 3 -28 -14 -28 -11 0 -20 -3 -20 -7 0 -5 -7 -17
-15 -27 -12 -16 -17 -17 -30 -6 -9 7 -21 22 -27 33 -11 21 1 18 34 -10 10 -9
18 -11 22 -4 9 14 -36 45 -259 173 -267 153 -558 306 -611 320 -58 16 -92 5
-311 -104 -130 -64 -183 -95 -183 -107 0 -9 -31 -41 -69 -71 -66 -52 -68 -54
-55 -79 21 -40 17 -56 -23 -82 -37 -24 -38 -26 -41 -92 -2 -58 -6 -68 -20 -65
-14 3 -17 18 -20 104 -2 90 -1 102 18 119 17 15 20 30 20 92 l0 74 -45 -27
-45 -26 2 64 1 63 7 -50 7 -50 1 53 c2 39 -1 53 -10 50 -9 -3 -14 -40 -16
-125 -2 -92 -6 -124 -17 -133 -11 -9 -15 -33 -15 -81 0 -55 -3 -69 -15 -69
-13 0 -15 20 -13 128 1 94 3 111 7 67 5 -45 9 -56 16 -45 6 9 9 76 8 162 l-3
147 140 100 c76 56 141 101 144 101 3 0 6 -9 6 -19 0 -19 2 -18 43 4 60 34
117 57 117 47 0 -4 -31 -23 -70 -41 l-70 -34 0 -51 c0 -48 -3 -53 -40 -80 -37
-28 -40 -33 -40 -78 l0 -49 35 27 c21 16 35 35 35 48 0 16 17 32 63 59 85 52
286 191 284 197 -5 13 50 74 96 109 62 45 77 54 77 47 0 -3 -30 -28 -67 -56
-61 -46 -94 -80 -79 -80 8 0 128 84 332 234 159 117 374 256 395 256 4 0 11
-4 14 -10z m180 -6 c-23 -18 -83 -50 -73 -39 4 4 22 18 40 31 36 25 65 33 33
8z m155 12 c0 -5 -137 -116 -177 -145 -18 -12 -33 -18 -33 -12 0 6 46 45 102
86 100 73 108 79 108 71z m-1460 -94 l0 -77 -35 -19 c-50 -27 -36 -32 15 -6
34 18 48 20 66 11 20 -9 23 -16 20 -43 -3 -18 -5 -41 -5 -51 -1 -18 -59 -59
-73 -51 -15 9 -8 22 10 18 9 -3 26 1 36 9 18 13 17 14 -11 10 -25 -4 -32 -1
-38 19 -5 18 -8 19 -12 7 -4 -17 -40 -32 -55 -23 -4 3 -8 54 -8 113 l0 108 38
25 c20 14 40 26 45 27 4 1 7 -34 7 -77z m-312 11 c62 -27 62 -28 62 -69 0 -22
-3 -43 -6 -47 -10 -10 -34 4 -34 20 0 8 -22 23 -49 34 -45 19 -49 24 -49 55 0
19 3 34 7 34 3 0 34 -12 69 -27z m1927 -49 c-48 -41 -75 -58 -75 -46 0 12 102
93 109 87 3 -4 -12 -22 -34 -41z m1317 -57 c-9 -11 -62 -48 -116 -84 l-99 -65
-69 33 -69 33 92 92 91 91 93 -41 c91 -39 93 -41 77 -59z m-1904 57 c28 -19
28 -41 0 -71 -27 -28 -37 -29 -83 -2 -33 20 -35 23 -21 37 14 14 19 14 49 0
20 -10 39 -13 47 -8 9 6 0 12 -29 21 -39 12 -41 14 -25 26 23 17 35 16 62 -3z
m147 -24 c-3 -5 -12 -10 -18 -10 -7 0 -6 4 3 10 19 12 23 12 15 0z m34 -2 c-2
-2 -17 -14 -34 -28 l-30 -25 29 32 c16 18 32 31 34 28 3 -3 3 -6 1 -7z m995
-12 c-10 -27 -343 -310 -353 -300 -3 3 17 24 44 47 27 23 106 93 175 154 123
111 145 127 134 99z m1196 -41 c106 -38 141 -56 105 -54 -32 1 -229 75 -233
88 -2 6 2 9 10 7 7 -3 60 -21 118 -41z m-2270 26 c0 -11 -31 -24 -39 -16 -3 3
1 10 9 15 19 12 30 12 30 1z m79 -14 c-45 -36 -81 -59 -85 -55 -3 3 14 20 37
37 24 17 45 29 47 26 3 -3 3 -6 1 -8z m-529 -2 c0 -10 -112 -86 -122 -83 -6 2
15 23 48 46 55 39 74 49 74 37z m384 -18 c-2 -7 -19 -21 -37 -31 l-32 -17 35
30 c39 35 41 36 34 18z m-926 -22 c2 -2 -11 -13 -27 -25 l-31 -21 0 31 c0 28
2 30 28 24 15 -4 28 -8 30 -9z m810 -9 c21 -11 22 -14 8 -25 -13 -11 -20 -11
-41 3 -47 31 -17 50 33 22z m-78 -10 c0 -2 -47 -36 -105 -76 -108 -75 -142
-104 -85 -75 23 12 35 14 43 6 16 -16 -4 -33 -114 -89 l-96 -50 -31 20 c-18
11 -32 21 -32 23 0 2 14 13 30 25 29 20 32 21 55 6 23 -15 26 -14 79 35 31 28
100 80 154 115 98 65 102 67 102 60z m214 -22 c6 -15 -44 -67 -87 -90 -40 -21
-44 -11 -7 17 67 52 84 68 73 69 -7 0 -37 -20 -67 -45 -56 -45 -87 -48 -38 -3
79 72 113 86 126 52z m323 -9 c-15 -14 -33 -25 -40 -25 -7 0 1 12 16 25 15 14
33 25 40 25 7 0 -1 -12 -16 -25z m-1462 -27 c14 -6 25 -15 25 -20 0 -7 -31 8
-59 29 -10 7 10 2 34 -9z m855 -59 c-35 -29 -50 -36 -50 -21 0 12 73 63 79 56
4 -3 -10 -19 -29 -35z m2178 -11 c3 -27 -20 -54 -38 -43 -14 9 -13 48 2 63 18
18 33 9 36 -20z m-3267 -16 c30 -17 98 -52 152 -80 l97 -49 -42 -28 c-28 -18
-43 -24 -46 -16 -2 6 -49 34 -103 62 -93 46 -101 53 -119 94 -22 51 -32 58
-24 17 5 -24 -1 -33 -47 -70 -28 -23 -56 -42 -62 -42 -11 0 -77 39 -77 46 0 2
28 26 63 54 58 46 65 50 108 46 26 -2 69 -17 100 -34z m1221 -14 c-9 -9 -12
-7 -12 12 0 19 3 21 12 12 9 -9 9 -15 0 -24z m282 1 c-31 -33 -63 -54 -71 -46
-4 5 85 77 95 77 3 0 -7 -14 -24 -31z m1946 -4 c-7 -9 -15 -13 -18 -10 -3 2 1
11 8 20 7 9 15 13 18 10 3 -2 -1 -11 -8 -20z m-2890 -5 c9 -6 20 -5 30 3 9 7
7 3 -3 -10 -11 -13 -25 -19 -35 -16 -9 4 -13 2 -9 -4 4 -6 -3 -8 -18 -5 -24 4
-33 21 -18 35 9 10 35 8 53 -3z m490 -29 c0 -12 -46 -41 -53 -34 -4 3 4 14 16
24 24 20 37 24 37 10z m510 -11 c-62 -49 -101 -72 -108 -65 -4 4 -2 10 5 12 6
2 31 20 55 39 24 18 50 34 58 34 10 0 7 -7 -10 -20z m-1520 -56 c83 -42 108
-59 103 -71 -3 -8 -42 -42 -87 -75 -57 -41 -87 -57 -102 -54 -11 3 -74 31
-139 61 l-119 56 30 25 c16 13 47 32 69 43 22 10 56 30 75 45 19 14 41 25 48
26 8 0 63 -25 122 -56z m2211 9 c-12 -20 -14 -14 -5 12 4 9 9 14 11 11 3 -2 0
-13 -6 -23z m-1636 5 c-11 -7 -27 -13 -35 -14 -8 -1 -27 -5 -42 -9 -48 -13
-31 4 20 19 59 18 85 20 57 4z m2900 -14 c28 -13 39 -21 25 -18 -29 7 -100 43
-85 43 6 0 33 -11 60 -25z m-13 -21 c97 -41 97 -38 28 -112 l-40 -45 -50 16
-49 16 -20 -34 c-13 -22 -28 -34 -42 -34 -22 0 -22 2 -7 116 3 18 74 110 88
113 3 1 44 -16 92 -36z m128 18 c0 -12 -20 -25 -27 -18 -7 7 6 27 18 27 5 0 9
-4 9 -9z m-1410 -80 c-14 -43 -20 -91 -20 -154 1 -116 18 -160 126 -322 97
-145 139 -215 127 -215 -22 1 -78 67 -151 180 -120 186 -127 203 -126 335 0
98 3 118 28 178 16 37 30 66 32 65 2 -2 -6 -32 -16 -67z m-250 -3 c-36 -33
-81 -73 -101 -89 -34 -27 -37 -27 -59 -12 -23 16 -23 16 -3 32 12 9 42 34 67
55 39 32 50 37 68 29 18 -8 26 -5 46 19 13 15 29 28 35 28 7 -1 -17 -28 -53
-62z m-1263 20 c-2 -7 -12 -12 -21 -10 -9 2 -24 -2 -34 -8 -14 -9 -13 -10 8
-4 33 9 25 1 -29 -26 -23 -12 -40 -17 -36 -11 10 17 -4 13 -36 -10 -16 -11
-35 -19 -42 -16 -6 2 12 16 42 31 29 15 50 23 46 17 -8 -14 5 -14 25 -1 13 8
13 10 0 10 -30 0 32 33 73 39 5 0 7 -5 4 -11z m633 -33 c-13 -13 -29 -21 -37
-18 -11 5 -8 11 14 28 35 29 52 21 23 -10z m-2107 -5 c4 -16 -4 -28 -34 -48
l-39 -27 3 -70 2 -70 45 -24 c25 -13 56 -30 68 -38 l24 -15 -24 -25 c-12 -14
-45 -41 -73 -59 -48 -33 -50 -38 -12 -34 10 1 38 -10 64 -24 25 -14 50 -26 56
-26 17 0 100 -91 90 -99 -4 -4 -52 -38 -106 -75 l-98 -67 -97 51 c-53 29 -100
55 -105 59 -4 4 17 24 47 45 29 20 62 46 72 58 11 12 -16 -5 -59 -37 -77 -58
-79 -58 -105 -43 -15 9 -28 20 -29 25 -3 8 177 144 200 152 7 2 19 9 27 16 8
7 41 26 72 43 l57 30 -59 36 c-33 19 -60 31 -60 27 0 -5 19 -20 42 -34 l41
-24 -59 -40 c-32 -22 -79 -50 -104 -62 l-45 -22 69 66 c65 62 68 66 52 83 -10
12 -16 38 -17 73 -1 30 -4 64 -7 77 l-7 22 -54 -35 c-30 -19 -57 -32 -60 -29
-3 3 3 12 14 20 22 15 123 104 164 144 29 29 36 29 44 0z m357 22 c0 -8 -53
-42 -66 -42 -4 0 7 11 26 25 37 27 40 29 40 17z m840 -1 c0 -10 -72 -41 -93
-41 -12 1 71 49 86 50 4 0 7 -4 7 -9z m2794 -84 c4 -51 2 -76 -4 -72 -6 3 -10
40 -10 82 0 42 2 74 4 72 2 -2 6 -39 10 -82z m-3432 8 c75 -36 140 -65 146
-65 6 0 12 -75 16 -197 4 -109 8 -229 9 -268 2 -70 2 -70 -24 -68 -22 1 -28
-4 -33 -29 -3 -17 -6 -43 -6 -57 0 -19 -10 -34 -30 -49 -38 -28 -40 -28 -40 8
0 28 -1 29 -25 18 -18 -8 -25 -19 -25 -41 0 -28 -1 -29 -21 -16 -19 13 -21 26
-25 164 -3 83 -7 160 -9 171 -3 15 -26 31 -80 55 -65 30 -75 37 -75 60 0 15
-11 35 -25 47 -21 18 -24 26 -15 42 14 27 14 27 -24 34 -19 4 -50 18 -71 31
-20 14 -54 34 -77 46 -22 11 -38 23 -35 25 3 3 27 -6 54 -19 64 -33 93 -41 93
-27 0 6 -36 27 -80 47 -99 44 -99 56 0 14 83 -36 80 -35 80 -17 0 7 -35 29
-77 49 -92 43 -86 47 12 9 73 -29 70 -25 74 -97 1 -23 59 -64 79 -57 8 2 -4
12 -27 23 -23 10 -41 21 -41 24 0 3 3 4 8 2 4 -3 24 -12 44 -20 l37 -16 -14
-34 c-17 -42 -18 -42 87 -90 42 -19 81 -44 87 -56 16 -28 25 -27 80 12 62 45
71 50 71 38 0 -6 -25 -29 -55 -51 l-55 -41 0 -56 0 -57 30 29 c34 32 32 48 -2
19 -13 -10 -2 4 25 32 28 30 47 60 48 74 1 20 3 18 9 -10 10 -42 -1 -63 -65
-116 -25 -21 -45 -42 -45 -46 0 -15 18 -8 50 18 17 15 34 23 38 19 7 -7 -23
-36 -68 -66 -14 -9 -22 -20 -18 -24 4 -4 28 7 54 24 62 40 80 39 29 -2 -77
-63 -90 -75 -83 -83 4 -3 38 18 75 48 l68 55 -7 159 c-3 87 -6 178 -7 202 l-1
42 -155 77 -155 78 28 22 c15 12 27 22 28 23 1 0 62 -29 136 -65z m3445 8 c-3
-10 -5 -2 -5 17 0 19 2 27 5 18 2 -10 2 -26 0 -35z m-3827 1 c75 -32 75 -32
68 -40 -3 -3 -41 13 -84 36 -87 45 -83 46 16 4z m2997 -33 c-48 -53 -64 -107
-49 -169 12 -53 8 -68 -8 -28 -13 35 -13 107 1 143 11 29 79 106 87 98 3 -2
-11 -22 -31 -44z m-2583 -103 l69 -35 -22 -20 c-38 -36 -111 -85 -111 -75 0 6
-45 33 -100 61 -92 48 -100 54 -111 91 -14 45 -15 46 -41 23 -35 -31 -20 10
18 48 l36 37 97 -47 c53 -26 127 -63 165 -83z m1006 112 c0 -5 -8 -18 -18 -28
-10 -10 -17 -23 -15 -29 4 -11 -61 -69 -243 -217 -76 -63 -115 -102 -129 -130
-10 -23 -38 -62 -62 -87 -23 -25 -41 -48 -38 -51 3 -2 -1 -5 -9 -5 -7 0 -67
-37 -132 -83 -249 -175 -250 -175 -300 -261 -26 -43 -48 -79 -50 -79 -2 0 -15
11 -30 25 l-27 25 29 22 c16 13 50 42 75 64 26 23 76 63 113 89 67 47 85 66
44 44 -54 -28 -208 -141 -203 -149 3 -5 0 -12 -6 -16 -8 -4 -9 -3 -5 4 16 26
-14 10 -42 -22 -22 -25 -33 -31 -46 -24 -21 12 -79 -15 -110 -52 -12 -15 -62
-58 -109 -95 -48 -36 -87 -69 -87 -72 0 -3 7 0 15 7 12 10 22 8 52 -7 20 -11
38 -24 40 -30 4 -10 -434 -369 -464 -380 -8 -3 -25 4 -38 17 -13 12 -39 27
-58 34 l-34 12 121 99 c131 107 393 306 494 374 34 24 62 49 62 57 0 9 -4 13
-9 10 -4 -3 -11 20 -15 51 -4 31 -5 57 -4 57 2 1 26 19 55 39 l52 36 40 -16
c23 -9 41 -19 41 -24 0 -4 -28 -27 -63 -52 -35 -25 -69 -53 -77 -62 -8 -9 43
24 114 74 134 97 294 203 436 291 120 74 170 117 170 144 0 13 10 31 23 40
l22 16 -39 35 -40 35 35 30 c49 43 232 166 293 197 28 14 65 27 81 29 17 1 41
7 55 12 32 14 40 14 40 2z m540 -56 c0 -2 -7 -4 -15 -4 -8 0 -15 4 -15 10 0 5
7 7 15 4 8 -4 15 -8 15 -10z m665 -111 c0 -100 2 -113 30 -168 16 -33 31 -64
33 -69 6 -11 -85 40 -112 63 -16 14 -18 28 -14 118 3 97 5 104 33 133 16 16
29 30 30 30 0 0 0 -48 0 -107z m-2058 45 c-3 -7 -5 -2 -5 12 0 14 2 19 5 13 2
-7 2 -19 0 -25z m1838 12 c22 -24 16 -41 -28 -74 -34 -26 -35 -26 -66 -9 -17
10 -31 21 -31 25 0 8 89 78 100 78 4 0 15 -9 25 -20z m-770 -20 c-10 -11 -57
-48 -104 -83 -96 -69 -451 -335 -465 -348 -5 -5 -7 -11 -4 -15 4 -3 37 18 75
48 37 30 100 76 138 103 39 27 89 65 112 84 23 19 50 35 60 36 10 1 67 32 126
69 60 38 115 69 124 70 32 2 23 -22 -19 -55 -24 -18 -85 -69 -137 -112 -52
-43 -194 -145 -315 -227 -122 -82 -304 -215 -405 -297 -155 -124 -196 -163
-257 -243 -74 -97 -223 -240 -249 -240 -8 0 -15 -5 -15 -11 0 -13 -40 -65 -40
-53 -1 5 -7 -3 -16 -18 -13 -24 -17 -26 -34 -16 -20 13 -25 34 -15 60 3 8 56
57 117 109 122 103 136 116 253 239 44 46 132 121 195 168 108 81 190 146 370
292 41 34 101 80 133 102 31 23 57 43 57 46 0 12 -193 -126 -270 -193 -75 -65
-153 -126 -270 -209 -52 -38 -110 -82 -127 -99 -18 -17 -35 -28 -38 -25 -3 3
14 23 38 45 24 22 42 44 40 50 -2 5 31 36 73 68 56 42 79 54 84 45 12 -19 184
119 188 151 3 22 -1 19 -45 -22 -26 -25 -67 -60 -90 -78 l-42 -32 -41 21 c-45
23 -47 28 -24 56 15 19 15 19 10 -1 -5 -15 2 -25 24 -38 33 -20 36 -19 98 30
49 40 51 49 17 65 -14 6 -25 15 -25 20 0 15 53 9 72 -9 10 -9 18 -11 18 -6 0
14 -45 43 -65 43 -9 0 -13 5 -10 10 10 16 57 12 90 -8 l30 -18 35 32 c19 17
85 69 145 115 61 45 157 119 215 164 118 92 180 135 194 135 5 0 1 -9 -9 -20z
m-165 -7 c-1 -11 -99 -77 -106 -71 -5 6 85 76 99 77 4 1 7 -2 7 -6z m200 -18
c0 -5 -167 -115 -210 -140 -32 -18 8 14 99 79 85 61 111 75 111 61z m-2060
-10 c0 -6 -52 -39 -133 -84 -79 -44 -64 -24 29 38 67 45 104 61 104 46z m420
-15 c6 -8 7 -28 4 -43 -3 -16 -3 -84 1 -152 l7 -123 57 -29 c31 -16 56 -34 56
-41 0 -7 -15 -22 -32 -33 l-33 -21 0 34 c0 44 -8 52 -36 33 -22 -14 -23 -13
-32 18 -6 17 -11 90 -12 161 -1 72 -5 137 -10 146 -5 9 -24 25 -44 35 -19 10
-33 22 -31 26 9 13 96 4 105 -11z m4443 -36 c-3 -8 -9 -14 -14 -14 -5 0 -15
-21 -22 -47 -9 -31 -20 -49 -32 -52 -15 -3 -17 2 -11 29 3 18 6 54 6 80 l0 48
39 -15 c26 -10 38 -20 34 -29z m-4823 19 c0 -11 -110 -74 -110 -63 0 11 16 25
55 50 32 20 55 25 55 13z m2850 -37 c0 -25 -4 -48 -10 -51 -6 -4 -10 13 -10
44 0 28 5 51 10 51 6 0 10 -20 10 -44z m-2420 5 c0 -25 6 -31 35 -41 19 -6 35
-18 35 -26 0 -12 -4 -12 -30 1 -36 19 -50 19 -50 1 0 -13 54 -41 73 -37 4 0 7
-19 7 -44 0 -38 -3 -44 -17 -39 -15 5 -15 3 1 -10 20 -16 19 -16 -1 -16 -12 0
-23 6 -26 13 -2 6 -8 9 -13 4 -7 -7 35 -44 47 -40 3 1 6 -5 6 -13 0 -12 -3
-12 -17 1 -9 8 -20 15 -25 15 -4 0 5 -10 21 -22 16 -12 31 -23 33 -25 3 -2 -1
-9 -7 -15 -9 -9 -12 -9 -12 -1 0 6 -16 17 -36 23 -48 16 -55 41 -53 182 1 92
5 118 15 118 9 0 14 -11 14 -29z m-430 -5 c0 -2 -26 -19 -57 -36 -32 -18 -69
-40 -83 -48 -23 -14 -24 -14 -10 1 8 8 42 31 75 50 58 34 75 41 75 33z m3033
-12 c11 -11 -3 -24 -18 -18 -8 4 -12 10 -9 15 6 11 18 12 27 3z m1127 -29 c0
-2 -25 -32 -55 -66 -30 -34 -55 -67 -55 -74 0 -12 63 -43 216 -105 l81 -33 -5
-106 c-3 -90 -7 -108 -23 -120 -10 -7 -19 -20 -19 -27 0 -17 -21 -18 -43 -1
-11 8 -17 31 -19 76 l-3 65 -72 30 c-40 16 -74 28 -77 25 -2 -2 -6 -35 -8 -73
l-4 -69 114 -53 c62 -29 111 -58 107 -63 -3 -6 -47 9 -103 35 -53 25 -103 48
-109 51 -9 3 -13 -4 -13 -22 0 -26 -2 -27 -36 -22 -61 10 -64 17 -57 129 5 82
4 100 -7 93 -18 -11 -4 107 19 160 20 45 171 195 171 170z m-1472 -37 c41 -23
54 -38 30 -38 -12 0 -88 49 -88 56 0 9 17 3 58 -18z m1574 -145 c51 -22 94
-45 96 -51 7 -23 -29 -24 -81 -2 -115 49 -207 93 -207 99 0 3 21 33 48 66 l47
59 3 -65 3 -66 91 -40z m-3002 106 c0 -45 -4 -53 -37 -84 -21 -19 -39 -31 -40
-27 -1 4 -5 25 -9 47 l-8 40 -10 -68 c-10 -61 -15 -70 -43 -88 l-33 -21 0 54
0 54 83 72 c45 39 85 72 90 72 4 0 7 -23 7 -51z m-1460 22 c0 -5 -7 -12 -16
-15 -14 -5 -15 -4 -4 9 14 17 20 19 20 6z m3350 -64 c0 -13 -29 12 -42 37 -10
19 -8 18 16 -3 14 -14 26 -29 26 -34z m-3350 13 c-35 -24 -54 -31 -30 -11 14
11 30 21 35 21 6 0 3 -5 -5 -10z m2275 -46 c-27 -24 -54 -43 -60 -43 -5 0 15
22 45 49 30 27 57 46 60 43 3 -2 -17 -25 -45 -49z m906 -114 c77 -44 145 -80
152 -80 7 0 21 7 31 15 31 23 45 19 128 -37 57 -39 76 -57 73 -69 -6 -17 29
-48 66 -62 16 -5 72 -69 103 -118 16 -25 16 -28 0 -43 -15 -16 -22 -11 -98 61
-95 91 -257 206 -417 298 -144 81 -219 128 -195 121 10 -4 81 -42 157 -86z
m-172 37 c30 -18 56 -38 59 -45 2 -7 -20 2 -49 21 -30 19 -63 39 -74 45 -14 8
-16 11 -5 12 8 0 39 -15 69 -33z m-779 -8 c0 -16 -41 -32 -53 -20 -16 16 21
55 40 40 7 -6 13 -15 13 -20z m-1095 -9 c-3 -5 1 -10 9 -10 9 0 16 -4 16 -9 0
-11 -26 -22 -34 -14 -10 10 -7 43 5 43 5 0 7 -4 4 -10z m1529 -40 c115 -38
142 -52 289 -149 89 -60 207 -134 262 -165 89 -52 185 -128 185 -148 0 -7 -47
19 -176 95 -33 19 -95 49 -137 66 -113 45 -182 82 -327 174 -71 45 -152 94
-179 109 -28 15 -55 37 -62 49 -9 18 -9 21 3 16 8 -3 72 -24 142 -47z m333 14
c36 -20 62 -38 60 -41 -6 -5 -92 38 -122 61 -35 27 -4 17 62 -20z m-2977 7 c0
-5 -7 -12 -16 -15 -14 -5 -15 -4 -4 9 14 17 20 19 20 6z m2055 -66 c-38 -35
-73 -61 -79 -58 -12 8 114 122 134 122 8 0 -16 -29 -55 -64z m-1484 13 c29
-16 36 -25 28 -34 -17 -21 26 -9 61 16 l30 21 0 -48 c1 -26 5 -106 10 -177 4
-71 6 -135 3 -143 -5 -12 -53 -43 -66 -43 -3 0 -8 66 -12 148 -3 81 -8 159
-11 174 l-6 28 -64 -46 c-36 -26 -68 -43 -72 -39 -4 4 4 15 17 24 51 34 64 50
19 24 -26 -16 -48 -35 -48 -44 0 -16 -197 -149 -220 -149 -24 0 -200 105 -200
120 0 24 49 16 122 -21 104 -52 124 -45 28 10 -140 81 -170 102 -170 122 0 23
9 24 35 5 36 -24 252 -136 264 -136 9 0 10 13 6 43 l-7 43 99 65 c54 35 100
69 102 74 3 6 6 5 8 -2 3 -7 22 -22 44 -35z m3550 15 c-20 -34 -110 -128 -111
-115 0 12 106 132 117 132 2 0 -1 -8 -6 -17z m-1756 -9 c15 -11 17 -18 9 -32
-14 -22 -34 -25 -70 -12 l-29 12 30 24 c35 28 34 28 60 8z m-907 -17 c12 -14
7 -23 -25 -50 -21 -18 -23 -18 -52 -1 -37 22 -38 28 -9 48 27 19 72 21 86 3z
m-358 -6 c0 -5 -7 -14 -15 -21 -13 -10 -15 -9 -15 9 0 12 6 21 15 21 8 0 15
-4 15 -9z m2700 -74 c0 -14 -39 23 -52 48 -8 14 -2 12 21 -9 17 -17 31 -34 31
-39z m-546 -8 c89 -57 261 -186 291 -219 33 -36 4 -21 -54 28 -80 69 -153 122
-255 186 -49 31 -83 56 -76 56 7 0 50 -23 94 -51z m-1999 -39 c-3 -5 -11 -10
-16 -10 -6 0 -7 5 -4 10 3 6 11 10 16 10 6 0 7 -4 4 -10z m530 -66 c-71 -65
-95 -81 -95 -62 1 15 126 118 143 118 7 -1 -15 -25 -48 -56z m3018 -40 c75
-30 142 -54 147 -54 6 0 10 15 10 34 0 33 13 55 23 39 6 -11 -20 -333 -28
-341 -3 -3 -40 9 -83 27 -42 18 -128 54 -190 79 l-112 46 5 96 c4 52 8 110 11
127 l5 33 37 -16 c20 -9 99 -40 175 -70z m-1602 6 c24 -21 38 -39 31 -40 -7 0
-32 18 -55 40 -55 52 -33 52 24 0z m-2191 17 c0 -2 -10 -12 -22 -23 l-23 -19
19 23 c18 21 26 27 26 19z m95 -89 c-63 -82 -65 -84 -65 -71 0 14 102 145 108
138 3 -2 -17 -33 -43 -67z m-165 28 c0 -2 -8 -10 -17 -17 -16 -13 -17 -12 -4
4 13 16 21 21 21 13z m650 -86 c-36 -33 -72 -59 -80 -59 -8 0 14 27 50 59 35
33 71 60 80 60 8 -1 -14 -27 -50 -60z m-696 14 c26 -14 53 -39 61 -54 14 -27
13 -29 -18 -59 -18 -17 -68 -58 -112 -91 -70 -52 -81 -57 -90 -43 -5 9 -27 36
-48 59 -27 30 -36 47 -30 58 6 11 182 156 189 156 1 0 22 -12 48 -26z m146
-118 c0 -7 -11 -23 -24 -35 l-23 -22 -7 23 c-12 46 -8 55 24 50 17 -2 30 -10
30 -16z m-120 -56 c0 -11 -5 -20 -12 -20 -6 0 -36 -19 -67 -42 -31 -23 -71
-53 -89 -66 -25 -19 -31 -21 -26 -8 7 17 172 155 187 156 4 0 7 -9 7 -20z
m496 11 c-13 -21 -177 -153 -183 -147 -8 8 -8 7 87 90 41 36 81 65 88 66 7 0
11 -4 8 -9z m3444 -121 c11 -6 12 -12 4 -20 -13 -13 -44 -2 -44 16 0 16 18 18
40 4z m-328 -66 c72 -32 88 -43 88 -61 0 -13 -6 -23 -12 -23 -7 0 -63 24 -125
54 -97 47 -111 57 -106 75 6 23 -6 27 155 -45z m-3978 -101 c-44 -39 -49 -41
-65 -27 -22 20 -17 31 33 72 39 31 41 32 60 15 20 -18 19 -19 -28 -60z m3904
19 l23 -18 -20 -18 c-20 -18 -22 -18 -61 8 -22 14 -40 31 -40 36 0 17 74 11
98 -8z m-3374 -13 c-41 -46 -134 -121 -145 -117 -13 4 135 138 153 138 6 0 3
-10 -8 -21z m-664 -76 c0 -25 -1 -26 -16 -11 -9 9 -13 21 -10 27 13 20 26 11
26 -16z m-22 -25 c3 -14 -105 -114 -113 -106 -2 2 -5 13 -7 24 -2 16 10 33 47
63 52 41 68 46 73 19z m227 -34 c0 -12 -8 -20 -22 -22 -25 -4 -31 16 -11 36
17 17 33 10 33 -14z m-585 -19 c0 -40 -27 -60 -68 -50 l-27 7 45 39 c25 21 46
39 48 39 1 0 2 -16 2 -35z m376 -34 c-11 -18 -127 -103 -132 -98 -3 3 25 30
62 61 62 51 86 64 70 37z m288 -73 c-31 -29 -62 -54 -68 -56 -6 -2 16 21 49
52 33 30 64 55 68 56 5 0 -17 -24 -49 -52z m2948 -99 c-4 -66 -21 -119 -37
-119 -8 0 -15 1 -15 3 0 1 7 24 15 51 8 27 15 65 15 83 0 24 4 33 13 30 8 -3
11 -20 9 -48z m420 -31 l27 -18 -19 -55 c-26 -75 -132 -295 -158 -325 -17 -20
-24 -23 -39 -14 -42 26 -39 54 20 188 31 70 66 158 78 196 23 77 22 76 91 28z
m-3762 -17 c0 -14 -71 -72 -83 -68 -22 7 -12 37 18 56 32 21 65 27 65 12z
m224 -32 c-35 -39 -181 -159 -193 -159 -20 0 -4 16 95 100 90 75 140 106 98
59z m3735 -78 c-70 -98 -179 -230 -183 -222 -6 10 184 255 192 247 2 -3 -1
-14 -9 -25z m434 -97 c42 -21 57 -34 57 -49 -1 -32 -19 -168 -24 -172 -2 -3
-57 23 -121 56 -65 34 -124 61 -132 61 -19 0 -18 2 46 87 l55 72 30 -13 c17
-7 57 -26 89 -42z m-414 -89 c-52 -68 -98 -125 -103 -125 -11 0 8 28 105 155
45 58 84 104 87 101 3 -3 -37 -62 -89 -131z m-779 98 c0 -16 -75 -113 -87
-113 -16 0 -14 4 35 73 30 42 52 59 52 40z m1041 -159 c121 -58 259 -136 259
-145 0 -16 -144 -184 -156 -181 -27 6 -319 164 -331 180 -7 9 -13 21 -13 27 0
17 120 165 134 165 7 0 55 -21 107 -46z m-1222 -105 c-18 -30 -39 -64 -46 -77
-8 -12 -18 -20 -24 -16 -10 6 24 72 69 133 38 51 38 22 1 -40z m1604 -116 c43
-22 65 -38 55 -40 -20 -5 -138 53 -138 67 0 15 4 13 83 -27z m-1737 -155 c-4
-13 -14 -65 -23 -115 -16 -93 -33 -123 -33 -59 0 36 26 171 36 187 11 19 26 9
20 -13z"/>
<path d="M1355 4845 c-39 -32 -28 -32 15 0 19 14 30 25 24 25 -5 0 -22 -11
-39 -25z"/>
<path d="M2504 4135 c0 -88 2 -123 3 -77 2 46 2 118 0 160 -1 42 -3 5 -3 -83z"/>
<path d="M2433 4238 c-24 -17 -41 -34 -38 -37 3 -2 19 6 36 18 17 13 34 20 37
16 4 -4 -2 -13 -13 -21 -42 -28 -53 -40 -60 -62 l-6 -22 37 25 c20 14 41 25
45 25 5 0 8 20 7 45 0 25 -2 45 -2 45 -1 -1 -20 -15 -43 -32z"/>
<path d="M2433 4126 c-29 -20 -43 -37 -43 -53 0 -21 4 -19 46 21 56 55 54 73
-3 32z"/>
<path d="M2451 4083 c-14 -18 -33 -35 -43 -39 -10 -3 -18 -14 -18 -25 0 -20 1
-20 38 2 52 31 54 33 50 65 l-3 29 -24 -32z"/>
<path d="M2432 3989 c-40 -29 -43 -34 -41 -73 5 -78 19 -86 74 -41 16 14 14
13 -12 -1 -38 -21 -38 -20 -47 26 -6 33 -3 37 38 63 29 18 43 33 39 43 -3 8
-6 14 -7 14 0 -1 -20 -15 -44 -31z"/>
<path d="M917 4414 c-16 -9 -27 -18 -24 -21 3 -2 17 3 32 13 22 14 32 15 64 5
51 -15 64 -13 21 4 -46 18 -59 17 -93 -1z"/>
<path d="M1060 4420 c-9 -6 -10 -10 -3 -10 6 0 15 5 18 10 8 12 4 12 -15 0z"/>
<path d="M4769 4523 c-13 -16 -12 -17 4 -4 16 13 21 21 13 21 -2 0 -10 -8 -17
-17z"/>
<path d="M1300 4115 c0 -8 338 -175 352 -174 13 0 -329 177 -344 178 -5 1 -8
-1 -8 -4z"/>
<path d="M1734 3976 c-10 -8 -17 -16 -14 -19 3 -2 14 4 24 14 23 22 18 25 -10
5z"/>
<path d="M1794 3860 c0 -58 1 -81 3 -52 2 28 2 76 0 105 -2 28 -3 5 -3 -53z"/>
<path d="M1757 3943 c-9 -9 -8 -119 2 -168 7 -31 9 -17 10 68 1 107 0 113 -12
100z"/>
<path d="M1721 3878 c1 -29 5 -80 9 -113 6 -53 7 -48 9 53 0 69 -3 112 -9 112
-6 0 -10 -23 -9 -52z"/>
<path d="M2045 3981 c-3 -5 -1 -12 5 -16 5 -3 10 1 10 9 0 18 -6 21 -15 7z"/>
<path d="M2021 3954 c0 -11 3 -14 6 -6 3 7 2 16 -1 19 -3 4 -6 -2 -5 -13z"/>
<path d="M1970 3935 c-11 -13 -10 -14 4 -9 9 3 16 10 16 15 0 13 -6 11 -20 -6z"/>
<path d="M2038 3936 c-20 -14 -24 -36 -8 -36 6 0 10 7 10 16 0 8 5 12 10 9 6
-3 10 1 10 9 0 19 0 19 -22 2z"/>
<path d="M1984 3902 c-19 -15 -34 -82 -18 -82 15 0 94 65 94 77 0 10 -7 7 -22
-7 l-23 -21 -5 25 c-5 24 -6 24 -26 8z m16 -30 c0 -10 -7 -19 -14 -19 -11 0
-13 5 -5 19 5 10 12 18 14 18 3 0 5 -8 5 -18z"/>
<path d="M1860 3902 c0 -11 71 -45 78 -37 8 7 1 12 -41 30 -20 8 -37 12 -37 7z"/>
<path d="M1860 3825 c0 -7 58 -35 72 -35 7 1 -3 9 -22 20 -35 19 -50 24 -50
15z"/>
<path d="M2047 3783 c-4 -3 -7 -11 -7 -17 0 -6 5 -5 12 2 6 6 9 14 7 17 -3 3
-9 2 -12 -2z"/>
<path d="M1980 3741 c-19 -16 -33 -32 -30 -34 7 -7 80 42 80 53 0 16 -13 11
-50 -19z"/>
<path d="M2047 3734 c-4 -4 -7 -14 -7 -23 0 -11 3 -12 11 -4 6 6 10 16 7 23
-2 6 -7 8 -11 4z"/>
<path d="M1988 3702 c-40 -29 -54 -61 -18 -42 11 6 20 15 20 21 0 6 4 8 8 5
13 -8 34 10 30 27 -2 13 -10 11 -40 -11z"/>
<path d="M1880 3700 c0 -11 5 -20 11 -20 5 0 7 5 3 11 -4 8 0 8 15 0 13 -7 21
-8 21 -2 0 9 -31 31 -44 31 -3 0 -6 -9 -6 -20z"/>
<path d="M1940 3615 c0 -18 4 -22 19 -18 11 3 21 13 24 23 3 13 -1 18 -19 18
-18 0 -24 -6 -24 -23z"/>
<path d="M1340 3642 c0 -5 9 -12 21 -15 13 -3 19 -1 16 6 -5 15 -37 22 -37 9z"/>
<path d="M3045 3570 c-3 -5 -2 -10 4 -10 5 0 13 5 16 10 3 6 2 10 -4 10 -5 0
-13 -4 -16 -10z"/>
<path d="M923 3510 c-35 -22 -63 -44 -63 -50 0 -11 115 65 126 82 8 13 3 10
-63 -32z"/>
<path d="M917 3472 c-32 -21 -57 -44 -57 -54 0 -13 13 -5 48 27 26 25 52 45
57 45 6 0 -16 -25 -47 -56 -67 -64 -79 -95 -15 -38 104 95 113 140 14 76z"/>
<path d="M920 3365 c-29 -30 -52 -57 -49 -59 4 -4 119 101 119 110 0 14 -22
-3 -70 -51z"/>
<path d="M920 3325 c-36 -36 -60 -65 -54 -65 13 0 129 118 123 124 -3 3 -34
-24 -69 -59z"/>
<path d="M927 3222 c-57 -57 -66 -72 -47 -72 6 0 10 8 10 17 0 12 3 14 11 6 8
-8 23 -3 55 20 24 17 44 34 44 39 0 17 -20 7 -51 -27 -18 -19 -35 -33 -37 -31
-8 9 33 58 55 67 13 5 23 15 23 24 0 8 -1 15 -3 15 -1 0 -28 -26 -60 -58z"/>
<path d="M3848 3183 c12 -2 30 -2 40 0 9 3 -1 5 -23 4 -22 0 -30 -2 -17 -4z"/>
<path d="M3786 3085 c-44 -30 -88 -63 -99 -73 -17 -18 -17 -20 -2 -36 23 -23
28 -21 63 29 32 46 105 105 129 105 7 0 13 7 13 15 0 25 -21 17 -104 -40z"/>
<path d="M3860 3084 c-35 -24 -100 -86 -111 -107 -6 -10 14 6 43 36 29 29 64
61 78 70 14 9 23 16 20 16 -3 1 -17 -6 -30 -15z"/>
<path d="M3561 3024 c-23 -26 -41 -51 -41 -57 0 -6 1 -8 3 -6 2 2 25 28 52 57
26 28 43 52 37 52 -6 0 -29 -21 -51 -46z"/>
<path d="M3703 2740 c0 -30 2 -43 4 -27 2 15 2 39 0 55 -2 15 -4 2 -4 -28z"/>
<path d="M3815 2753 c10 -55 25 -65 25 -16 0 28 -5 43 -16 47 -14 5 -15 1 -9
-31z"/>
<path d="M3720 2722 c0 -28 5 -54 10 -57 6 -4 7 -11 4 -17 -5 -7 -11 -2 -17
13 l-10 24 -7 -25 c-5 -14 -8 -49 -9 -78 -1 -45 3 -57 26 -80 37 -37 42 -12 7
41 -20 32 -22 38 -7 24 27 -24 31 -12 32 96 0 63 -3 88 -14 97 -13 11 -15 5
-15 -38z"/>
<path d="M3865 2741 c-12 -20 -1 -92 17 -107 17 -16 18 -15 18 19 0 28 -3 35
-15 31 -8 -4 -15 -1 -15 5 0 7 7 14 15 17 8 4 15 12 15 19 0 15 -27 28 -35 16z"/>
<path d="M3770 2676 c0 -45 12 -61 24 -30 10 26 7 51 -9 64 -13 11 -15 6 -15
-34z"/>
<path d="M3809 2647 c-3 -33 1 -52 14 -68 9 -12 21 -18 25 -14 4 4 -3 14 -15
22 -18 12 -20 19 -11 43 6 19 6 35 0 46 -8 14 -11 7 -13 -29z"/>
<path d="M3840 2624 c0 -26 37 -104 50 -104 13 0 13 37 0 45 -6 4 -8 10 -5 15
3 5 -6 21 -20 37 -22 26 -24 26 -25 7z"/>
<path d="M3772 2569 c-1 -22 3 -50 10 -62 11 -22 12 -21 19 7 6 20 4 35 -4 44
-7 8 -11 23 -9 34 2 10 -1 18 -6 18 -5 0 -9 -18 -10 -41z"/>
<path d="M3855 2509 c-4 -6 2 -21 14 -32 l21 -21 0 21 c0 26 -25 49 -35 32z"/>
<path d="M3854 2428 c9 -46 30 -56 34 -16 2 18 -2 34 -10 39 -24 16 -31 9 -24
-23z"/>
<path d="M3785 2441 c-4 -7 1 -24 10 -38 16 -24 18 -25 27 -8 8 13 5 22 -10
37 -13 14 -22 16 -27 9z"/>
<path d="M3830 2392 c0 -5 7 -15 15 -22 8 -7 15 -8 15 -2 0 5 -7 15 -15 22 -8
7 -15 8 -15 2z"/>
<path d="M2220 3355 c7 -8 22 -15 34 -15 20 1 20 2 -4 15 -33 19 -46 19 -30 0z"/>
<path d="M2544 3404 c-18 -14 -18 -15 4 -4 12 6 22 13 22 15 0 8 -5 6 -26 -11z"/>
<path d="M1287 2695 c-15 -11 -17 -21 -12 -60 7 -44 8 -45 26 -29 19 17 25 68
11 91 -5 8 -12 8 -25 -2z"/>
<path d="M1443 3387 c-22 -10 -31 -27 -15 -27 12 0 48 28 42 33 -3 2 -15 0
-27 -6z"/>
<path d="M1443 3348 c-13 -6 -23 -17 -23 -25 0 -11 6 -11 30 4 46 27 40 44 -7
21z"/>
<path d="M1453 3307 c-21 -9 -40 -37 -25 -37 11 1 57 38 52 43 -3 3 -15 0 -27
-6z"/>
<path d="M1518 3243 c7 -3 16 -2 19 1 4 3 -2 6 -13 5 -11 0 -14 -3 -6 -6z"/>
<path d="M340 2382 c0 -5 10 -14 23 -20 12 -6 41 -23 65 -37 23 -14 42 -24 42
-21 0 2 -24 19 -52 38 -29 18 -59 37 -65 41 -7 4 -13 4 -13 -1z"/>
<path d="M1046 2345 c-3 -8 -1 -15 4 -15 13 0 22 18 11 24 -5 3 -11 -1 -15 -9z"/>
<path d="M1836 2696 c-30 -19 -34 -25 -20 -28 11 -2 24 2 29 9 13 17 85 30 85
15 0 -6 -13 -19 -29 -28 -17 -10 -28 -21 -25 -26 10 -15 -25 -8 -59 12 l-34
20 -101 -80 c-56 -44 -102 -85 -102 -89 0 -17 35 -71 45 -71 11 0 146 99 268
198 57 45 67 57 55 67 -26 26 -71 26 -112 1z m-56 -106 c0 -29 -27 -45 -57
-34 -38 13 -38 29 -2 47 37 17 59 13 59 -13z"/>
<path d="M500 1539 c-105 -83 -160 -130 -120 -103 35 24 240 186 240 190 0 7
-5 4 -120 -87z"/>
<path d="M334 1408 l-19 -23 23 19 c21 18 27 26 19 26 -2 0 -12 -10 -23 -22z"/>
<path d="M259 1353 c-13 -16 -12 -17 4 -4 9 7 17 15 17 17 0 8 -8 3 -21 -13z"/>
<path d="M1377 1958 c-37 -28 -65 -53 -63 -56 6 -5 131 82 141 98 13 20 -12 7
-78 -42z"/>
<path d="M820 1350 c6 -11 12 -20 14 -20 2 0 6 9 9 20 4 15 0 20 -14 20 -17 0
-18 -3 -9 -20z"/>
<path d="M710 2401 c0 -11 10 -26 23 -32 21 -12 21 -11 4 8 -9 11 -14 22 -11
25 3 3 1 9 -5 13 -7 3 -11 -2 -11 -14z"/>
<path d="M4241 2254 c0 -11 3 -14 6 -6 3 7 2 16 -1 19 -3 4 -6 -2 -5 -13z"/>
<path d="M4232 2190 c0 -14 2 -19 5 -12 2 6 2 18 0 25 -3 6 -5 1 -5 -13z"/>
<path d="M4690 1906 c0 -32 1 -33 123 -81 67 -27 144 -57 170 -67 l48 -18 -3
31 c-3 30 -7 33 -170 99 l-168 68 0 -32z"/>
<path d="M4680 1803 c0 -28 5 -31 168 -96 l167 -66 7 26 c4 15 6 28 5 29 -3 4
-300 121 -324 128 -20 6 -23 4 -23 -21z"/>
<path d="M4479 558 c-70 -86 -75 -94 -42 -64 l31 28 149 -76 c81 -43 138 -69
126 -60 l-23 16 31 35 c17 20 27 39 22 43 -13 13 -163 92 -163 87 0 -3 36 -25
79 -48 85 -45 88 -51 42 -93 -21 -19 -22 -19 -124 34 -149 78 -142 70 -108
110 27 32 30 34 57 22 27 -11 27 -11 10 3 -31 23 -41 19 -87 -37z"/>
<path d="M1945 5110 c-3 -5 6 -22 20 -36 14 -14 23 -29 20 -32 -3 -3 -17 7
-30 23 -30 37 -33 16 -6 -40 11 -22 22 -48 25 -58 12 -40 26 -1 26 74 0 77 -1
79 -24 79 -14 0 -28 -4 -31 -10z"/>
<path d="M2254 5111 c10 -16 46 -20 46 -5 0 8 -10 14 -26 14 -14 0 -23 -4 -20
-9z"/>
<path d="M2429 5102 c-12 -11 -18 -22 -13 -25 6 -3 23 5 40 18 21 17 24 24 13
25 -9 0 -27 -8 -40 -18z"/>
<path d="M2473 5083 c-29 -21 -52 -44 -52 -51 -1 -12 36 11 109 68 47 37 -3
21 -57 -17z"/>
<path d="M2534 5074 c-76 -51 -121 -91 -113 -99 3 -2 50 27 105 66 116 83 112
79 92 79 -9 0 -47 -21 -84 -46z"/>
<path d="M3642 5097 c-27 -29 -27 -33 1 -48 19 -11 21 -10 9 3 -11 14 -9 19
14 37 33 26 35 26 83 2 24 -13 42 -16 52 -11 26 17 -21 39 -82 40 -45 0 -59
-4 -77 -23z"/>
<path d="M4786 5060 c-59 -45 -74 -61 -62 -66 19 -7 -11 -37 -134 -131 -41
-32 -140 -110 -220 -174 -80 -63 -174 -137 -210 -164 -78 -58 -93 -72 -62 -55
43 22 385 287 652 505 168 137 176 144 165 145 -5 0 -44 -27 -85 -60 -41 -33
-79 -60 -85 -60 -10 1 22 32 90 88 66 54 34 36 -49 -28z"/>
<path d="M3714 5034 c-18 -14 -18 -15 4 -4 12 6 22 13 22 15 0 8 -5 6 -26 -11z"/>
<path d="M1144 4994 c-18 -14 -18 -15 4 -4 12 6 22 13 22 15 0 8 -5 6 -26 -11z"/>
<path d="M4148 4927 c-42 -29 -85 -57 -95 -63 -10 -7 -16 -14 -13 -17 5 -5
172 101 195 124 23 23 -16 3 -87 -44z"/>
<path d="M83 4788 l-83 -51 0 -79 c0 -43 2 -78 5 -78 3 0 48 26 101 57 l96 57
-6 51 c-3 27 -6 60 -6 73 0 12 -6 22 -12 22 -7 -1 -50 -24 -95 -52z"/>
<path d="M5070 4682 c0 -32 4 -41 22 -45 27 -8 27 -9 21 31 -3 18 -14 37 -24
43 -17 9 -19 6 -19 -29z"/>
<path d="M5113 4465 c0 -22 2 -30 4 -17 2 12 2 30 0 40 -3 9 -5 -1 -4 -23z"/>
<path d="M5030 4155 c-29 -30 -52 -56 -49 -58 9 -8 133 -47 137 -43 7 8 -9 26
-19 21 -5 -4 -9 3 -9 14 0 11 8 25 18 31 12 8 13 13 5 16 -7 3 -13 21 -13 40
0 19 -4 34 -8 34 -4 0 -32 -25 -62 -55z"/>
<path d="M4709 4061 c13 -12 28 -21 34 -21 12 0 11 0 -28 24 l-30 17 24 -20z"/>
<path d="M4885 4054 c-27 -14 -54 -30 -59 -35 -6 -5 -15 -4 -23 3 -10 8 -12 7
-7 -5 3 -10 -2 -20 -16 -27 -27 -15 -93 7 -85 29 4 11 3 12 -10 1 -11 -9 -15
-32 -15 -80 0 -109 -12 -250 -22 -250 -5 0 -6 58 -3 133 3 72 2 126 -1 120 -8
-19 -22 -16 -90 16 l-62 29 -6 -36 c-3 -21 -6 -75 -6 -122 l0 -85 102 -42 c56
-23 103 -41 104 -40 2 1 6 56 9 122 8 169 11 184 35 178 11 -3 36 7 62 25 55
37 148 85 155 78 9 -8 -6 -24 -83 -87 -65 -53 -79 -61 -109 -57 l-35 4 0 -66
c0 -36 -3 -75 -6 -86 -4 -15 0 -23 13 -27 10 -3 95 -35 188 -72 218 -86 205
-83 205 -53 0 21 -11 29 -72 54 -39 16 -74 36 -76 43 -3 8 0 11 5 8 5 -3 39
-17 76 -31 62 -23 67 -24 67 -7 0 13 -17 25 -60 41 -33 12 -65 28 -71 36 -15
19 -10 18 66 -11 l66 -24 -3 52 -3 52 -62 25 c-60 24 -79 40 -49 40 8 0 35 -9
61 -20 57 -24 55 -24 55 -2 0 12 -18 24 -60 40 -33 13 -60 28 -60 33 0 13 14
11 70 -10 l50 -19 0 32 c0 31 -3 33 -67 57 -37 13 -70 25 -74 27 -3 1 -9 -55
-13 -125 -4 -70 -11 -144 -16 -163 -10 -36 -8 46 7 243 7 100 6 101 -72 61z
m-247 -186 c3 -15 -1 -15 -48 3 -55 21 -74 24 -65 10 3 -5 28 -17 55 -26 28
-9 50 -21 50 -26 0 -13 -19 -11 -72 8 -46 16 -48 19 -48 55 l0 37 62 -22 c39
-14 64 -28 66 -39z m-28 -68 c13 0 20 -7 20 -19 0 -19 -2 -19 -32 -7 -56 23
-78 28 -78 17 0 -5 25 -18 55 -27 40 -13 55 -23 55 -36 0 -22 3 -22 -64 3 -56
22 -56 22 -56 64 l0 43 40 -19 c21 -10 48 -19 60 -19z m490 10 c8 -5 11 -10 5
-10 -5 0 -17 5 -25 10 -8 5 -10 10 -5 10 6 0 17 -5 25 -10z"/>
<path d="M4495 4029 c-4 -6 -5 -12 -2 -15 2 -3 7 2 10 11 7 17 1 20 -8 4z"/>
<path d="M220 3765 c0 -2 23 -16 50 -30 28 -14 50 -23 50 -20 0 2 -22 16 -50
30 -27 14 -50 23 -50 20z"/>
<path d="M565 3650 c4 -6 25 -22 47 -36 34 -22 38 -27 26 -41 -12 -15 -11 -15
10 -2 l22 14 -22 17 c-36 28 -90 59 -83 48z"/>
<path d="M4872 3585 c14 -8 68 -30 120 -49 51 -19 102 -37 113 -41 14 -6 17
-5 10 3 -9 9 -251 103 -264 102 -3 -1 6 -7 21 -15z"/>
<path d="M522 3496 c-85 -58 -128 -91 -92 -71 35 20 190 126 190 130 0 7 2 9
-98 -59z"/>
<path d="M177 3310 c-25 -20 -27 -25 -21 -78 4 -31 8 -58 10 -60 1 -2 14 4 28
13 22 15 26 24 25 64 0 25 -4 54 -8 64 -6 17 -8 17 -34 -3z"/>
<path d="M4433 3224 c-58 -45 -74 -63 -79 -90 -3 -19 -4 -37 -2 -40 10 -10
148 108 154 131 14 56 1 56 -73 -1z"/>
<path d="M62 3203 c-62 -45 -62 -45 -62 -95 0 -55 -5 -56 83 6 l58 40 -7 46
c-4 25 -7 46 -8 46 0 1 -29 -18 -64 -43z"/>
<path d="M187 3147 c-25 -20 -27 -26 -21 -70 4 -26 10 -46 13 -45 3 2 19 10
34 18 17 8 26 19 22 28 -3 7 -5 31 -5 53 0 45 -5 47 -43 16z"/>
<path d="M4059 3130 l83 -40 -7 -158 c-4 -86 -10 -190 -14 -230 -6 -57 -5 -70
4 -58 7 10 15 83 19 183 4 93 9 189 13 215 l5 47 -81 40 c-44 23 -86 41 -93
41 -6 0 25 -18 71 -40z"/>
<path d="M4255 3111 l-80 -50 -5 -69 c-6 -82 -9 -82 92 2 65 54 66 55 70 110
1 31 3 56 3 56 0 0 -36 -22 -80 -49z"/>
<path d="M62 3054 c-58 -43 -62 -48 -62 -85 l0 -40 76 52 c53 35 74 55 70 66
-3 8 -6 23 -6 34 0 26 -7 24 -78 -27z"/>
<path d="M196 3013 c-27 -14 -28 -18 -22 -60 3 -25 6 -54 6 -65 0 -19 1 -19
30 -1 28 16 30 22 30 75 0 31 -3 59 -8 61 -4 3 -20 -2 -36 -10z"/>
<path d="M4303 3003 c-21 -14 -23 -24 -25 -112 l-2 -96 -6 90 c-6 86 -6 87
-10 30 l-4 -60 -3 54 c-4 52 -5 53 -24 35 -15 -14 -19 -32 -21 -98 l-2 -81 -6
75 c-5 64 -7 68 -10 30 l-3 -45 -4 38 c-8 71 -20 37 -27 -74 -4 -61 -5 -113
-3 -116 3 -2 18 8 34 24 16 15 55 51 86 79 l58 51 -3 95 -3 95 -22 -14z m-6
-100 c-2 -16 -4 -3 -4 27 0 30 2 43 4 28 2 -16 2 -40 0 -55z m-50 -115 c-3 -7
-5 -2 -5 12 0 14 2 19 5 13 2 -7 2 -19 0 -25z"/>
<path d="M4393 2957 c-38 -27 -43 -35 -43 -71 l0 -39 25 23 c14 13 25 30 25
37 0 8 4 12 9 8 8 -4 35 64 28 71 -1 1 -21 -12 -44 -29z"/>
<path d="M71 2933 c-59 -40 -71 -53 -71 -75 0 -16 2 -28 5 -28 3 0 37 21 75
47 59 40 70 52 70 75 0 15 -2 28 -4 28 -2 0 -36 -21 -75 -47z"/>
<path d="M75 2833 c-49 -39 -71 -63 -73 -81 l-4 -25 29 18 c82 54 133 97 133
115 0 10 -3 21 -7 23 -5 2 -39 -20 -78 -50z"/>
<path d="M4861 2886 c13 -13 260 -104 257 -94 -2 6 -51 28 -108 48 -128 46
-157 54 -149 46z"/>
<path d="M4304 2778 l-19 -23 23 19 c21 18 27 26 19 26 -2 0 -12 -10 -23 -22z"/>
<path d="M72 2734 c-61 -46 -72 -59 -72 -84 0 -17 5 -30 11 -30 6 0 42 21 80
48 65 44 69 49 69 85 0 20 -3 37 -7 37 -5 0 -41 -25 -81 -56z"/>
<path d="M3952 2679 c2 -6 30 -25 63 -42 52 -28 60 -36 63 -64 4 -36 0 -38
-29 -23 -12 7 -19 7 -19 1 0 -5 9 -13 20 -16 19 -6 20 -15 20 -127 0 -95 3
-118 13 -110 9 8 11 49 7 169 l-5 158 -65 33 c-72 36 -73 36 -68 21z"/>
<path d="M3962 2528 c5 -15 87 -63 94 -55 3 2 -18 19 -47 36 -28 18 -49 26
-47 19z"/>
<path d="M3950 2455 c0 -2 14 -11 30 -20 17 -9 30 -12 30 -7 0 5 -11 14 -25
20 -28 13 -35 14 -35 7z"/>
<path d="M5060 2340 c19 -11 42 -19 50 -19 8 0 -3 9 -25 19 -53 24 -70 24 -25
0z"/>
<path d="M2273 1986 c-144 -78 -407 -289 -773 -621 -36 -33 -122 -109 -190
-170 -68 -60 -149 -134 -180 -162 -31 -29 -63 -53 -71 -53 -22 0 -106 -56
-118 -78 -6 -11 -54 -57 -107 -103 -57 -49 -102 -96 -110 -116 -8 -18 -35 -52
-62 -74 -26 -23 -119 -115 -207 -203 -88 -89 -218 -216 -288 -283 -123 -119
-126 -123 -94 -123 27 0 44 12 102 71 39 39 106 102 150 141 45 39 19 11 -57
-64 -76 -73 -138 -137 -138 -141 0 -4 82 -7 183 -7 l182 0 120 121 c66 66 251
241 410 389 160 147 376 347 480 445 175 163 256 223 287 213 10 -4 -150 -159
-442 -430 -150 -138 -310 -311 -403 -433 -34 -44 -112 -131 -175 -192 l-113
-113 137 0 137 0 141 134 c558 530 1081 1057 1227 1239 43 54 91 121 105 150
25 49 246 287 267 287 9 0 127 -78 127 -85 0 -2 -170 -174 -377 -382 -208
-208 -454 -457 -548 -554 -93 -97 -257 -258 -362 -359 -179 -170 -210 -208
-183 -225 14 -9 13 -35 -2 -35 -6 0 -19 7 -29 16 -21 19 -26 15 -162 -112
l-79 -74 89 0 88 1 210 202 c250 241 477 417 694 538 73 41 125 87 388 340
167 161 301 294 299 296 -2 3 20 40 50 84 30 44 54 84 54 89 0 6 16 10 35 10
19 0 35 -3 35 -7 0 -4 -39 -45 -87 -91 -49 -46 -83 -82 -76 -80 6 2 51 41 98
87 l86 83 56 -37 57 -38 -60 -56 c-290 -274 -374 -348 -470 -418 -143 -104
-344 -272 -464 -388 -52 -51 -106 -100 -120 -110 -16 -11 -19 -15 -6 -11 12 4
35 -4 66 -24 60 -38 105 -46 151 -27 32 13 277 233 532 478 94 90 98 95 88
121 -15 41 -51 45 -108 14 -109 -60 -293 -211 -468 -386 -100 -99 -185 -180
-191 -180 -5 0 77 86 181 191 143 143 225 216 330 293 77 57 154 111 171 119
18 9 55 45 83 80 79 101 85 103 183 71 59 -19 93 -37 125 -67 23 -22 43 -43
43 -47 0 -4 -111 -111 -247 -237 -296 -276 -450 -432 -486 -493 -14 -25 -31
-67 -37 -95 -8 -37 -20 -57 -46 -78 -34 -29 -38 -52 -6 -40 9 4 71 56 137 116
210 192 401 330 473 343 28 5 56 24 112 79 78 75 199 181 262 228 l37 28 55
-26 c31 -15 56 -32 56 -39 0 -16 -79 -130 -155 -225 -45 -57 -59 -70 -70 -61
-16 13 -27 8 -75 -33 l-33 -28 23 -24 c23 -24 21 -50 -4 -87 -11 -15 -17 -12
-65 24 -47 36 -56 39 -75 28 -13 -6 -137 -123 -277 -260 l-254 -249 107 0 106
-1 129 131 c111 114 262 251 300 273 9 5 11 1 8 -11 -3 -10 10 14 30 52 19 39
93 148 164 242 163 217 186 262 185 363 0 59 -5 85 -24 125 -30 61 -119 150
-231 230 -316 226 -464 339 -462 352 0 9 -5 12 -13 9 -14 -6 -149 74 -324 191
-113 75 -136 78 -227 29z m-53 -111 c-19 -19 -38 -35 -44 -35 -6 0 7 18 29 40
21 22 41 37 44 35 2 -3 -11 -21 -29 -40z m75 -131 c17 -14 17 -17 5 -22 -8 -3
-29 -19 -45 -37 l-30 -31 -30 18 c-118 74 -183 89 -117 27 26 -25 198 -129
213 -129 13 0 -3 38 -22 56 -26 24 -25 28 23 59 l42 28 28 -34 c39 -46 37 -84
-4 -109 -47 -28 -57 -25 -21 8 32 28 48 68 31 78 -11 7 -68 -44 -68 -60 0 -5
10 0 23 12 38 36 44 25 7 -13 -19 -19 -40 -35 -48 -35 -14 0 -85 38 -137 74
-16 12 -33 22 -37 22 -5 1 -12 2 -18 3 -5 0 -10 7 -10 15 0 8 -11 17 -24 20
-13 3 -26 12 -29 19 -7 17 59 92 96 111 27 13 32 12 90 -25 34 -22 71 -46 82
-55z m175 51 c-19 -19 -38 -35 -44 -35 -5 0 5 16 24 35 19 19 38 35 44 35 5 0
-5 -16 -24 -35z m-662 -252 c-157 -143 -165 -152 -145 -164 17 -10 15 -14 -20
-44 -37 -32 -38 -32 -70 -17 -18 9 -33 19 -33 23 0 14 65 54 82 51 10 -2 18 1
18 6 0 11 210 202 222 202 5 0 -19 -26 -54 -57z m327 4 c58 -31 60 -34 60 -71
0 -37 -6 -44 -73 -103 -40 -35 -77 -61 -82 -58 -23 14 -6 37 64 87 54 38 75
59 75 76 1 12 -4 22 -10 22 -5 0 -7 -5 -3 -12 4 -7 3 -8 -5 -4 -15 10 -110
-64 -111 -86 0 -9 -4 -19 -8 -22 -13 -8 -112 41 -113 56 0 7 -7 -7 -15 -32 -8
-26 -12 -62 -9 -86 5 -39 3 -43 -44 -87 -28 -26 -57 -47 -65 -47 -23 0 -28 18
-7 25 10 3 26 14 36 25 15 17 16 24 5 50 -7 17 -19 34 -28 39 -11 7 -5 17 34
52 27 24 87 81 134 126 47 46 90 83 95 83 6 -1 37 -15 70 -33z m591 -52 c-49
-47 -92 -82 -95 -79 -8 8 158 164 173 164 6 -1 -29 -39 -78 -85z m-631 -75
c-16 -16 -31 -28 -33 -25 -4 4 48 54 57 55 3 0 -8 -13 -24 -30z m965 -75 c-41
-41 -79 -75 -85 -75 -10 1 144 150 155 150 2 0 -29 -34 -70 -75z m-1068 9 c10
-3 18 -9 18 -14 0 -5 -7 -6 -17 -3 -11 4 -14 3 -9 -5 5 -8 2 -10 -9 -5 -11 4
-13 8 -6 13 7 4 2 11 -14 18 -14 6 -25 19 -25 27 0 13 4 12 22 -4 12 -12 30
-23 40 -27z m-256 -19 c10 -8 26 -15 35 -15 9 0 22 -7 29 -15 10 -13 10 -19
-5 -35 -22 -24 -43 -27 -24 -3 9 11 2 9 -19 -6 -35 -25 -46 -23 -97 15 -20 15
-19 16 13 45 37 33 41 34 68 14z m792 -52 c-37 -37 -71 -63 -75 -59 -8 8 115
126 132 126 5 0 -20 -30 -57 -67z m602 8 c-30 -27 -57 -47 -60 -44 -7 7 89 93
103 93 7 0 -13 -22 -43 -49z m-1651 -4 c-15 -12 -112 -94 -215 -182 -104 -88
-198 -167 -209 -174 -46 -34 17 22 216 192 114 96 210 181 214 187 4 6 10 8
14 5 3 -4 -6 -17 -20 -28z m151 -22 c41 -25 77 -45 81 -45 4 0 12 7 19 15 19
22 28 18 22 -10 -3 -19 -7 -23 -17 -15 -7 6 -15 7 -17 2 -4 -12 -171 69 -176
86 -6 20 9 14 88 -33z m259 -52 c-137 -142 -464 -450 -673 -632 -90 -78 174
179 344 336 91 83 212 199 270 257 57 58 109 106 114 106 5 0 -20 -30 -55 -67z
m-359 -78 c-35 -36 -71 -65 -78 -65 -21 0 -12 11 55 73 86 78 102 72 23 -8z
m1655 -95 c-60 -60 -114 -110 -120 -110 -9 1 214 219 225 220 2 0 -45 -49
-105 -110z m-1368 -57 c-46 -47 -59 -55 -69 -44 -11 10 -2 23 47 67 39 35 63
50 69 44 7 -7 -9 -30 -47 -67z m503 68 c0 -11 -196 -194 -213 -200 -7 -2 35
44 93 103 100 101 120 117 120 97z m-416 -28 c8 -9 -74 -93 -91 -93 -21 0 -15
12 29 57 43 44 50 48 62 36z m-617 -70 c-20 -20 -39 -34 -43 -30 -8 7 68 78
76 71 2 -3 -12 -21 -33 -41z m-168 -134 c-30 -26 -56 -43 -58 -37 -4 13 91 97
103 90 5 -3 -15 -27 -45 -53z m1691 -204 c-194 -194 -239 -234 -228 -206 4 13
428 421 436 421 4 0 -90 -97 -208 -215z m-1986 114 c-10 -12 -32 -30 -49 -42
-26 -17 -25 -15 10 21 39 42 75 61 39 21z m85 -105 c-37 -37 -69 -56 -69 -40
0 12 96 94 103 89 5 -3 -10 -25 -34 -49z m406 -54 c-38 -39 -76 -70 -85 -70
-8 1 20 35 64 76 43 41 81 72 84 69 3 -3 -25 -37 -63 -75z m-599 41 c-3 -4
-56 -54 -118 -111 l-113 -102 113 111 c102 100 133 127 118 102z m24 -159 c0
-7 -61 -68 -122 -121 -16 -14 -31 -21 -35 -18 -3 4 27 38 68 77 71 67 89 79
89 62z m340 -101 c0 -12 -210 -194 -217 -187 -3 3 -1 11 4 18 5 7 44 57 87
111 l76 97 25 -16 c14 -9 25 -19 25 -23z m450 -35 c0 -21 -69 -61 -82 -48 -8
8 -2 18 18 36 32 28 64 34 64 12z m-1074 -174 c-30 -31 -59 -53 -63 -49 -9 10
98 118 110 110 5 -3 -16 -31 -47 -61z"/>
<path d="M1940 1453 c1 -36 100 -69 100 -34 0 5 -19 16 -43 25 -48 18 -57 19
-57 9z"/>
<path d="M3950 1903 c1 -13 81 -66 88 -58 4 4 -2 13 -13 22 -32 23 -75 44 -75
36z"/>
<path d="M2712 1668 c-110 -101 -468 -455 -575 -568 -135 -142 -747 -748 -950
-940 -90 -85 -163 -157 -161 -159 5 -6 69 53 434 404 190 182 415 405 500 496
85 90 231 238 325 329 290 283 508 500 501 500 -3 0 -37 -28 -74 -62z"/>
<path d="M4280 1325 c0 -7 81 -47 86 -43 2 3 -17 14 -41 26 -25 12 -45 20 -45
17z"/>
<path d="M4765 1202 c13 -12 277 -133 282 -129 2 2 -38 23 -87 46 -137 64
-206 94 -195 83z"/>
<path d="M2963 1166 c-21 -18 -27 -34 -31 -79 -8 -97 0 -99 73 -27 36 36 65
68 65 72 0 12 -40 46 -61 51 -12 3 -30 -4 -46 -17z"/>
<path d="M4919 940 c102 -50 189 -89 194 -87 11 3 -347 177 -365 177 -7 0 70
-41 171 -90z"/>
<path d="M1924 934 c-63 -59 -46 -54 26 8 24 21 41 40 38 43 -2 3 -31 -20 -64
-51z"/>
<path d="M84 947 c-22 -18 -51 -40 -65 -49 -13 -8 -21 -19 -17 -23 6 -7 120
75 133 95 12 19 -10 9 -51 -23z"/>
<path d="M2760 843 l-115 -118 118 115 c64 63 117 116 117 117 0 8 -13 -5
-120 -114z"/>
<path d="M2972 545 c-54 -24 -261 -187 -380 -300 -62 -59 -112 -103 -112 -98
0 5 -6 18 -14 28 -13 18 -16 18 -62 -20 -91 -73 -174 -148 -169 -153 2 -3 43
30 91 73 93 83 97 83 110 12 5 -32 2 -43 -17 -63 l-22 -24 49 0 c49 0 50 0
144 96 52 52 179 175 283 272 180 169 198 192 147 191 -8 0 -30 -6 -48 -14z"/>
<path d="M2394 509 c-49 -55 -235 -159 -283 -159 -13 0 -57 18 -97 40 -40 22
-77 40 -82 40 -8 0 -263 -202 -460 -365 l-73 -60 65 -3 c64 -3 66 -2 121 43
51 41 85 56 85 38 0 -5 -26 -25 -58 -45 -55 -36 -56 -38 -26 -38 20 0 39 9 55
26 30 33 56 47 70 38 7 -4 0 -17 -17 -35 -33 -34 -12 -40 23 -7 13 12 26 18
30 15 3 -4 -2 -14 -13 -22 -17 -13 -7 -14 99 -15 l118 0 127 123 c70 68 148
143 174 166 31 28 59 67 79 110 17 36 45 81 62 99 17 17 28 32 26 32 -3 0 -14
-10 -25 -21z m-434 -133 c0 -3 -34 -32 -75 -66 -41 -34 -75 -59 -75 -56 0 5
141 126 147 126 2 0 3 -2 3 -4z m20 -137 c-83 -73 -123 -103 -119 -91 6 17
153 142 159 135 3 -2 -15 -22 -40 -44z"/>
<path d="M805 255 c-143 -140 -255 -255 -249 -255 14 0 391 366 464 450 29 33
50 60 48 59 -1 0 -120 -114 -263 -254z"/>
<path d="M3151 339 c-6 -18 -11 -37 -10 -43 0 -6 7 7 15 28 8 22 12 41 10 43
-2 2 -9 -10 -15 -28z"/>
<path d="M4961 267 c-1 -48 -18 -80 -76 -148 -32 -37 -42 -56 -34 -63 14 -14
56 37 97 118 26 51 29 67 22 96 l-8 35 -1 -38z"/>
<path d="M4286 185 l-65 -84 52 -27 52 -26 39 46 39 46 98 -51 97 -51 31 33
c17 19 31 39 31 44 0 10 -280 155 -299 155 -5 0 -39 -38 -75 -85z"/>
<path d="M3116 218 c-5 -24 -33 -59 -99 -125 -51 -52 -85 -93 -76 -93 9 0 24
10 35 21 10 12 41 40 68 62 l49 41 -5 -62 c-2 -34 -1 -62 4 -62 4 0 8 18 8 39
0 21 7 76 16 121 8 45 13 84 11 86 -2 3 -7 -10 -11 -28z"/>
<path d="M4947 112 c-19 -21 -22 -32 -7 -32 10 0 34 39 27 46 -2 2 -11 -4 -20
-14z"/>
<path d="M2370 70 c-19 -16 -29 -29 -23 -30 7 0 27 13 45 30 43 38 23 39 -22
0z"/>
<path d="M4897 33 c-26 -30 -27 -33 -10 -33 27 0 57 35 46 52 -6 11 -14 7 -36
-19z"/>
<path d="M4810 15 c-10 -12 -10 -15 4 -15 9 0 16 7 16 15 0 8 -2 15 -4 15 -2
0 -9 -7 -16 -15z"/>
</g>
</svg>